<svg xmlns="http://www.w3.org/2000/svg" width="1445" height="359.038"><defs><linearGradient id="linear-gradient" x1=".007" y1=".025" x2=".993" y2=".971" gradientUnits="objectBoundingBox"><stop offset="0" stop-color="#6788ff"/><stop offset="1" stop-color="#9b64fd"/></linearGradient><linearGradient id="linear-gradient-2" x1=".473" y1=".163" x2=".959" y2=".968" gradientUnits="objectBoundingBox"><stop offset="0" stop-color="#8f6dfe"/><stop offset="1" stop-color="#2e3158"/></linearGradient><linearGradient id="linear-gradient-3" x1=".5" x2=".5" y2="1" gradientUnits="objectBoundingBox"><stop offset="0" stop-color="#7c92e6"/><stop offset="1" stop-color="#6e84ff"/></linearGradient><linearGradient id="linear-gradient-4" x1=".5" x2=".5" y2="1" gradientUnits="objectBoundingBox"><stop offset="0" stop-color="#7c92e6"/><stop offset="1" stop-color="#7d90ff"/></linearGradient></defs><g id="card-blue" transform="translate(-237 -1532.962)"><rect id="Rectangle_2" data-name="Rectangle 2" width="1445" height="358" rx="30" transform="translate(237 1534)" fill="url(#linear-gradient)"/><path id="Path_4" data-name="Path 4" d="M1254.156 1892s-59.062-28.141 20.307-117.555 183.652-216.2 285.537-230.385 122 173.663 122 173.663v149.854s-3.313 12.4-11.539 18.51S1649.1 1892 1649.1 1892z" opacity=".54" fill="url(#linear-gradient-2)"/><path id="Path_39" data-name="Path 39" d="M44.7.251c25.275.784 46.352 22.973 47.076 49.562l6.933 254.606c.724 26.589-19.179 47.508-44.454 46.725S7.9 328.171 7.176 301.582L.244 46.976C-.48 20.387 19.423-.532 44.7.251z" transform="rotate(-32 2891.364 382.64)" fill="url(#linear-gradient-3)"/><path id="Path_40" data-name="Path 40" d="M48.131.252c27.226.8 49.93 23.375 50.71 50.428l7.468 259.055c.78 27.054-20.659 48.339-47.886 47.541S8.493 333.9 7.713 306.848L.245 47.793C-.535 20.739 20.9-.546 48.131.252z" transform="rotate(-32 2913.856 294.534)" fill="url(#linear-gradient-4)"/></g></svg>