<svg xmlns="http://www.w3.org/2000/svg" width="440.486" height="841.336"><defs><linearGradient id="linear-gradient" x1=".019" y1=".011" x2=".983" y2=".983" gradientUnits="objectBoundingBox"><stop offset="0" stop-color="#c27fff"/><stop offset="1" stop-color="#e99cfc"/></linearGradient><linearGradient id="linear-gradient-2" x1=".5" x2=".5" y2="1" gradientUnits="objectBoundingBox"><stop offset="0" stop-color="#c581ff"/><stop offset="1" stop-color="#e095fc"/></linearGradient><linearGradient id="linear-gradient-3" x1=".5" x2=".5" y2="1" gradientUnits="objectBoundingBox"><stop offset="0" stop-color="#c87dff"/><stop offset="1" stop-color="#e196fd"/></linearGradient></defs><g id="card-purple" transform="translate(-1281.514 -6068.664)"><rect id="Rectangle_19" data-name="Rectangle 19" width="440" height="841" rx="39" transform="translate(1282 6069)" fill="url(#linear-gradient)"/><rect id="Rectangle_23" data-name="Rectangle 23" width="348" height="348" rx="39" transform="translate(1374 6562)" opacity=".62" fill="url(#linear-gradient-2)"/><rect id="Rectangle_24" data-name="Rectangle 24" width="210" height="210" rx="39" transform="translate(1512 6700)" opacity=".62" fill="url(#linear-gradient-3)"/><path id="Path_19" data-name="Path 19" d="M66.312 17.664s161.443.332 160.969 0a148.98 148.98 0 01-85.34 271.089c-54.547 0-101.665-29.81-127.845-73.927.284.312-.582-143.962-.582-143.962S18.34 47.972 31.54 34.672s34.772-17.008 34.772-17.008z" transform="translate(1268 6051)" fill="#d38cfe"/><path id="Path_20" data-name="Path 20" d="M57.383 17.664s134.141.276 133.747 0a123.786 123.786 0 01-70.908 225.244c-45.323 0-84.956-24.689-106.708-61.346.236.259 0-119.7 0-119.7s4.01-19.02 14.977-30.071 28.892-14.127 28.892-14.127z" transform="translate(1268 6051)" fill="#d08afd"/><path id="Path_21" data-name="Path 21" d="M48.247 17.664s106.205.218 105.894 0A98.007 98.007 0 0198 196c-35.884 0-67.263-19.548-84.486-48.57.187.205 0-94.768 0-94.768S16.689 37.6 25.372 28.853s22.875-11.189 22.875-11.189z" transform="translate(1268 6051)" fill="#cd87ff"/></g></svg>