<svg xmlns="http://www.w3.org/2000/svg" width="440" height="841"><defs><linearGradient id="linear-gradient" x1=".019" y1=".011" x2=".983" y2=".983" gradientUnits="objectBoundingBox"><stop offset="0" stop-color="#dbd279"/><stop offset="1" stop-color="#f1a564"/></linearGradient><linearGradient id="linear-gradient-2" x1=".5" x2=".5" y2="1" gradientUnits="objectBoundingBox"><stop offset="0" stop-color="#dfca75"/><stop offset="1" stop-color="#eab46b"/></linearGradient></defs><g id="card-yellow" transform="translate(-740 -6069)"><rect id="Rectangle_19" data-name="Rectangle 19" width="440" height="841" rx="39" transform="translate(740 6069)" fill="url(#linear-gradient)"/><circle id="Ellipse_9" data-name="Ellipse 9" cx="19.5" cy="19.5" r="19.5" transform="translate(790 6125)" fill="#e1d57e" opacity=".46"/><circle id="Ellipse_9-2" data-name="Ellipse 9" cx="19.5" cy="19.5" r="19.5" transform="translate(849 6125)" fill="#e1d57e" opacity=".46"/><circle id="Ellipse_9-3" data-name="Ellipse 9" cx="19.5" cy="19.5" r="19.5" transform="translate(908 6125)" fill="#e1d57e" opacity=".46"/><circle id="Ellipse_9-4" data-name="Ellipse 9" cx="19.5" cy="19.5" r="19.5" transform="translate(790 6184)" fill="#e2d780" opacity=".46"/><circle id="Ellipse_9-5" data-name="Ellipse 9" cx="19.5" cy="19.5" r="19.5" transform="translate(849 6184)" fill="#e2d780" opacity=".46"/><circle id="Ellipse_9-6" data-name="Ellipse 9" cx="19.5" cy="19.5" r="19.5" transform="translate(908 6184)" fill="#e2d780" opacity=".46"/><circle id="Ellipse_9-7" data-name="Ellipse 9" cx="19.5" cy="19.5" r="19.5" transform="translate(790 6243)" fill="#e6db84" opacity=".46"/><circle id="Ellipse_9-8" data-name="Ellipse 9" cx="19.5" cy="19.5" r="19.5" transform="translate(849 6243)" fill="#e6db84" opacity=".46"/><circle id="Ellipse_9-9" data-name="Ellipse 9" cx="19.5" cy="19.5" r="19.5" transform="translate(908 6243)" fill="#e6db84" opacity=".46"/><path id="Rectangle_22" data-name="Rectangle 22" d="M52 0a52 52 0 0152 52v158H0V52A52 52 0 0152 0z" transform="translate(828 6700)" fill="url(#linear-gradient-2)"/><path id="Rectangle_20" data-name="Rectangle 20" d="M52 0a52 52 0 0152 52v311H0V52A52 52 0 0152 0z" transform="translate(908 6547)" fill="url(#linear-gradient-2)"/><path id="Rectangle_21" data-name="Rectangle 21" d="M65 0a65 65 0 0165 65v438H0V65A65 65 0 0165 0z" transform="translate(993 6407)" fill="url(#linear-gradient-2)"/></g></svg>