<svg xmlns="http://www.w3.org/2000/svg" width="441.558" height="841.289"><defs><linearGradient id="linear-gradient" x1=".019" y1=".011" x2=".983" y2=".983" gradientUnits="objectBoundingBox"><stop offset="0" stop-color="#30aeff"/><stop offset="1" stop-color="#8301fe"/></linearGradient><linearGradient id="linear-gradient-2" x1=".016" y1=".06" x2=".923" y2=".298" gradientUnits="objectBoundingBox"><stop offset="0" stop-color="#3a99ff"/><stop offset="1" stop-color="#5180ff"/></linearGradient><linearGradient id="linear-gradient-3" x1="1" y1=".078" x2=".836" y2="1" gradientUnits="objectBoundingBox"><stop offset="0" stop-color="#4f6cfe"/><stop offset="1" stop-color="#8829ff"/></linearGradient></defs><g id="card-blue" transform="translate(-738.904 -6068.776)"><rect id="Rectangle_19" data-name="Rectangle 19" width="440" height="841" rx="39" transform="translate(740 6069)" fill="url(#linear-gradient)"/><path id="Path_18" data-name="Path 18" d="M740 6354.385s-15.837-149.564 72.888-205.334 251.809 65.91 305.044 24.5 62.53-54.08 62.53-54.08v-14.365s-2.535-14.577-10.14-23.66-20.28-12.675-20.28-12.675h-371.8s-14.944 1.056-24.5 8.45-13.742 21.13-13.742 21.13z" fill="url(#linear-gradient-2)"/><path id="Path_7" data-name="Path 7" d="M392.5 488.078s-32.686 551.535-57.451 630.5S181.37 1208.2 181.37 1208.2l173.071-.3s16.412-1.488 25.909-10.679 12.079-26.084 12.079-26.084l.052-111.665z" transform="translate(787.5 5701.865)" fill="url(#linear-gradient-3)"/></g></svg>