<svg preserveAspectRatio="none" xmlns="http://www.w3.org/2000/svg" width="1445.015" height="358.003"><defs><linearGradient id="linear-gradient" x1=".007" y1=".025" x2=".993" y2=".971" gradientUnits="objectBoundingBox"><stop offset="0" stop-color="#f7d95d"/><stop offset="1" stop-color="#f15caa"/></linearGradient><linearGradient id="linear-gradient-2" x1=".917" y1=".923" x2=".035" gradientUnits="objectBoundingBox"><stop offset="0" stop-color="#f26ba1"/><stop offset="1" stop-color="#f38f83"/></linearGradient><linearGradient id="linear-gradient-3" x1=".947" x2="0" y2=".214" gradientUnits="objectBoundingBox"><stop offset="0" stop-color="#f49d82"/><stop offset="1" stop-color="#ffdc70"/></linearGradient></defs><g id="card-orange" transform="translate(-236.985 -1533.997)"><rect id="Rectangle_2" data-name="Rectangle 2" width="1445" height="358" rx="30" transform="translate(237 1534)" fill="url(#linear-gradient)"/><path id="Path_6" data-name="Path 6" d="M629.436 696.22s13.579 0 22.443-9.618 8.3-25.838 8.3-25.838l.042-273.237H335.649s-19-1.122-28.216 5.832-8.667 21.988-8.667 21.988V696.4z" transform="translate(1021.735 1195.601)" fill="url(#linear-gradient-2)"/><path id="Path_7" data-name="Path 7" d="M19.984 565.36l201.044-148.773L807.22 345l-758.733.227S37.439 346.34 29.85 352.7s-9.6 18.19-9.6 18.19z" transform="translate(217 1189)" fill="url(#linear-gradient-3)"/></g></svg>