<svg xmlns="http://www.w3.org/2000/svg" xmlns:xlink="http://www.w3.org/1999/xlink" width="545" height="946" viewBox="0 0 545 946"><defs><linearGradient id="a" x1="0.019" y1="0.011" x2="0.983" y2="0.983" gradientUnits="objectBoundingBox"><stop offset="0" stop-color="#30aeff"/><stop offset="1" stop-color="#8301fe"/></linearGradient><filter id="b" x="0" y="0" width="545" height="946" filterUnits="userSpaceOnUse"><feOffset input="SourceAlpha"/><feGaussianBlur stdDeviation="17.5" result="c"/><feFlood flood-color="#5f4cff" flood-opacity="0.361"/><feComposite operator="in" in2="c"/><feComposite in="SourceGraphic"/></filter><linearGradient id="d" x1="0.016" y1="0.06" x2="0.923" y2="0.298" gradientUnits="objectBoundingBox"><stop offset="0" stop-color="#3a99ff"/><stop offset="1" stop-color="#5180ff"/></linearGradient><linearGradient id="e" x1="1" y1="0.078" x2="0.836" y2="1" gradientUnits="objectBoundingBox"><stop offset="0" stop-color="#4f6cfe"/><stop offset="1" stop-color="#8829ff"/></linearGradient></defs><g transform="translate(-687.5 -6016.5)"><g transform="matrix(1, 0, 0, 1, 687.5, 6016.5)" filter="url(#b)"><rect width="440" height="841" rx="39" transform="translate(52.5 52.5)" fill="url(#a)"/></g><path d="M740,6354.385s-15.837-149.564,72.888-205.334,251.809,65.91,305.044,24.5,62.53-54.08,62.53-54.08v-14.365s-2.535-14.577-10.14-23.66-20.28-12.675-20.28-12.675h-371.8s-14.944,1.056-24.5,8.45S740,6098.351,740,6098.351Z" fill="url(#d)"/><path d="M392.5,488.078s-32.686,551.535-57.451,630.5S181.37,1208.2,181.37,1208.2l173.071-.3s16.412-1.488,25.909-10.679,12.079-26.084,12.079-26.084l.052-111.665Z" transform="translate(787.5 5701.865)" fill="url(#e)"/></g></svg>