<svg xmlns="http://www.w3.org/2000/svg" xmlns:xlink="http://www.w3.org/1999/xlink" width="545" height="946" viewBox="0 0 545 946"><defs><linearGradient id="a" x1="0.019" y1="0.011" x2="0.983" y2="0.983" gradientUnits="objectBoundingBox"><stop offset="0" stop-color="#c27fff"/><stop offset="1" stop-color="#e99cfc"/></linearGradient><filter id="b" x="0" y="0" width="545" height="946" filterUnits="userSpaceOnUse"><feOffset input="SourceAlpha"/><feGaussianBlur stdDeviation="17.5" result="c"/><feFlood flood-color="#d78ffd" flood-opacity="0.561"/><feComposite operator="in" in2="c"/><feComposite in="SourceGraphic"/></filter><linearGradient id="d" x1="0.5" x2="0.5" y2="1" gradientUnits="objectBoundingBox"><stop offset="0" stop-color="#c581ff"/><stop offset="1" stop-color="#e095fc"/></linearGradient><linearGradient id="e" x1="0.5" x2="0.5" y2="1" gradientUnits="objectBoundingBox"><stop offset="0" stop-color="#c87dff"/><stop offset="1" stop-color="#e196fd"/></linearGradient></defs><g transform="translate(-1229.5 -6016.5)"><g transform="matrix(1, 0, 0, 1, 1229.5, 6016.5)" filter="url(#b)"><rect width="440" height="841" rx="39" transform="translate(52.5 52.5)" fill="url(#a)"/></g><rect width="348" height="348" rx="39" transform="translate(1374 6562)" opacity="0.62" fill="url(#d)"/><rect width="210" height="210" rx="39" transform="translate(1512 6700)" opacity="0.62" fill="url(#e)"/><path d="M66.312,17.664s161.443.332,160.969,0a148.98,148.98,0,0,1-85.34,271.089c-54.547,0-101.665-29.81-127.845-73.927.284.312-.582-143.962-.582-143.962S18.34,47.972,31.54,34.672,66.312,17.664,66.312,17.664Z" transform="translate(1268 6051)" fill="#d38cfe"/><path d="M57.383,17.664s134.141.276,133.747,0a123.786,123.786,0,0,1-70.908,225.244c-45.323,0-84.956-24.689-106.708-61.346.236.259,0-119.7,0-119.7s4.01-19.02,14.977-30.071S57.383,17.664,57.383,17.664Z" transform="translate(1268 6051)" fill="#d08afd"/><path d="M48.247,17.664s106.205.218,105.894,0A98.007,98.007,0,0,1,98,196c-35.884,0-67.263-19.548-84.486-48.57.187.205,0-94.768,0-94.768S16.689,37.6,25.372,28.853,48.247,17.664,48.247,17.664Z" transform="translate(1268 6051)" fill="#cd87ff"/></g></svg>