<svg xmlns="http://www.w3.org/2000/svg" xmlns:xlink="http://www.w3.org/1999/xlink" width="545" height="946" viewBox="0 0 545 946"><defs><linearGradient id="a" x1="0.019" y1="0.011" x2="0.983" y2="0.983" gradientUnits="objectBoundingBox"><stop offset="0" stop-color="#dbd279"/><stop offset="1" stop-color="#f1a564"/></linearGradient><filter id="b" x="0" y="0" width="545" height="946" filterUnits="userSpaceOnUse"><feOffset input="SourceAlpha"/><feGaussianBlur stdDeviation="17.5" result="c"/><feFlood flood-color="#ebd34f" flood-opacity="0.412"/><feComposite operator="in" in2="c"/><feComposite in="SourceGraphic"/></filter><linearGradient id="d" x1="0.5" x2="0.5" y2="1" gradientUnits="objectBoundingBox"><stop offset="0" stop-color="#dfca75"/><stop offset="1" stop-color="#eab46b"/></linearGradient></defs><g transform="translate(-687.5 -6016.5)"><g transform="matrix(1, 0, 0, 1, 687.5, 6016.5)" filter="url(#b)"><rect width="440" height="841" rx="39" transform="translate(52.5 52.5)" fill="url(#a)"/></g><circle cx="19.5" cy="19.5" r="19.5" transform="translate(790 6125)" fill="#e1d57e" opacity="0.46"/><circle cx="19.5" cy="19.5" r="19.5" transform="translate(849 6125)" fill="#e1d57e" opacity="0.46"/><circle cx="19.5" cy="19.5" r="19.5" transform="translate(908 6125)" fill="#e1d57e" opacity="0.46"/><circle cx="19.5" cy="19.5" r="19.5" transform="translate(790 6184)" fill="#e2d780" opacity="0.46"/><circle cx="19.5" cy="19.5" r="19.5" transform="translate(849 6184)" fill="#e2d780" opacity="0.46"/><circle cx="19.5" cy="19.5" r="19.5" transform="translate(908 6184)" fill="#e2d780" opacity="0.46"/><circle cx="19.5" cy="19.5" r="19.5" transform="translate(790 6243)" fill="#e6db84" opacity="0.46"/><circle cx="19.5" cy="19.5" r="19.5" transform="translate(849 6243)" fill="#e6db84" opacity="0.46"/><circle cx="19.5" cy="19.5" r="19.5" transform="translate(908 6243)" fill="#e6db84" opacity="0.46"/><path d="M52,0h0a52,52,0,0,1,52,52V210a0,0,0,0,1,0,0H0a0,0,0,0,1,0,0V52A52,52,0,0,1,52,0Z" transform="translate(828 6700)" fill="url(#d)"/><path d="M52,0h0a52,52,0,0,1,52,52V363a0,0,0,0,1,0,0H0a0,0,0,0,1,0,0V52A52,52,0,0,1,52,0Z" transform="translate(908 6547)" fill="url(#d)"/><path d="M65,0h0a65,65,0,0,1,65,65V503a0,0,0,0,1,0,0H0a0,0,0,0,1,0,0V65A65,65,0,0,1,65,0Z" transform="translate(993 6407)" fill="url(#d)"/></g></svg>