<svg xmlns="http://www.w3.org/2000/svg" xmlns:xlink="http://www.w3.org/1999/xlink" width="404" height="404" viewBox="0 0 404 404"><defs><radialGradient id="a" cx="0.782" cy="0.52" r="0.786" gradientTransform="translate(1.502 1.121) rotate(-173.726)" gradientUnits="objectBoundingBox"><stop offset="0" stop-color="#843535"/><stop offset="1" stop-color="#4b1a1a"/></radialGradient><filter id="b" x="0" y="0" width="404" height="404" filterUnits="userSpaceOnUse"><feOffset input="SourceAlpha"/><feGaussianBlur stdDeviation="13" result="c"/><feFlood flood-opacity="0.051"/><feComposite operator="in" in2="c"/><feComposite in="SourceGraphic"/></filter><clipPath id="d"><circle cx="163" cy="163" r="163" transform="translate(0.491 0.491)"/></clipPath><linearGradient id="e" x1="-5.68" y1="0.848" x2="-5.68" y2="1.18" gradientUnits="objectBoundingBox"><stop offset="0" stop-color="#ca9b8e" stop-opacity="0.8"/><stop offset="0.7" stop-color="#ab6957"/></linearGradient><linearGradient id="f" x1="-47.094" y1="11.04" x2="-47.094" y2="11.359" gradientUnits="objectBoundingBox"><stop offset="0.1" stop-color="#d1a99e"/><stop offset="1" stop-color="#ca9b8e"/></linearGradient><radialGradient id="g" cx="0.5" cy="0.499" r="0.77" gradientTransform="translate(-31.33 16.646) rotate(180) scale(0.517 1)" gradientUnits="objectBoundingBox"><stop offset="0" stop-color="#fff"/><stop offset="0.544" stop-color="#fdfefe"/><stop offset="0.74" stop-color="#f6f8f9"/><stop offset="0.879" stop-color="#eaeff2"/><stop offset="0.992" stop-color="#d9e3e8"/><stop offset="1" stop-color="#d8e2e7"/></radialGradient><radialGradient id="h" cx="0.502" cy="0.481" fx="0.6177033185958862" r="0.638" gradientTransform="matrix(0.771, 0.021, -0.013, 0.792, -1.783, 1.316)" gradientUnits="objectBoundingBox"><stop offset="0" stop-color="#ca9b8e"/><stop offset="0.7" stop-color="#ca9b8e" stop-opacity="0.302"/><stop offset="1" stop-color="#d9b8af" stop-opacity="0"/></radialGradient><radialGradient id="i" cx="0.622" cy="1.912" r="1.993" gradientTransform="matrix(-0.483, -0.358, 0.158, -0.793, -32.309, 13.858)" gradientUnits="objectBoundingBox"><stop offset="0.95" stop-opacity="0"/><stop offset="1" stop-opacity="0.2"/></radialGradient><radialGradient id="j" cx="0.5" cy="0.499" r="0.77" gradientTransform="matrix(0.517, 0, 0, -1, -6.098, 16.646)" xlink:href="#g"/><radialGradient id="k" cx="0.498" cy="0.481" fx="0.6130237579345703" r="0.638" gradientTransform="matrix(-0.771, 0.021, 0.013, 0.792, -30.304, 1.551)" xlink:href="#h"/><radialGradient id="l" cx="0.378" cy="1.912" r="1.993" gradientTransform="matrix(0.483, -0.358, -0.157, -0.793, -6.233, 1.896)" xlink:href="#i"/><radialGradient id="m" cx="0.5" cy="0.5" r="0.5" gradientTransform="matrix(1, 0, 0, -1, 0, 2.702)" gradientUnits="objectBoundingBox"><stop offset="0" stop-color="#e8d7d3" stop-opacity="0.502"/><stop offset="0.9" stop-color="#d9b8af" stop-opacity="0"/></radialGradient><radialGradient id="n" cx="0.5" cy="0.5" r="0.493" gradientTransform="matrix(1, 0, 0, -1, 0, 4.994)" xlink:href="#m"/></defs><g transform="translate(38.024 38.124)"><g transform="matrix(1, 0, 0, 1, -38.02, -38.12)" filter="url(#b)"><circle cx="163" cy="163" r="163" transform="translate(39 39)" fill="url(#a)"/></g><g transform="translate(0.485 0.385)"><g transform="translate(0 0)" clip-path="url(#d)"><g transform="translate(37.175 24.931)"><g transform="translate(125.724 140.731)"><path d="M415.684,422.584H414.5V421.4h1.184Z" transform="translate(-414.5 -421.4)" fill="#1e1b1e"/></g><g transform="translate(7.881 167.33)"><path d="M347.323,580.911c-2.6-5.6-9.708-13.931-17.6-16.26-9.748-2.842-31.769-6.275-39.939-8.209-6.551-1.539-19.733-13.379-24.35-17.325a5.114,5.114,0,0,1-1.539-3.276c-.158-12.866,4.973-47.042,4.973-47.042H199.8s5.13,34.177,4.973,47.042a4.929,4.929,0,0,1-1.539,3.276c-4.617,3.986-17.8,15.825-24.35,17.325-8.169,1.894-30.191,5.486-39.939,8.327-7.893,2.289-15,10.5-17.6,16.141-4.381,9.472-5.446,26.639-5.446,41.438H352.69C352.73,607.55,351.7,590.383,347.323,580.911Z" transform="translate(-115.9 -488.8)" fill="#d9b8af"/><path d="M304.506,636.418c28.809,4.183,40.965,10.3,44.753,60.066h3.591c0-14.8-1.026-31.967-5.407-41.438-2.6-5.6-9.708-13.931-17.6-16.26-9.748-2.841-31.769-6.275-39.939-8.209-6.551-1.539-21.587-14.286-25.613-19.338,3.986,5.565,15.155,18.47,24.942,21.864C293.89,634.682,297.758,635.432,304.506,636.418Zm-124.788-3.355c9.787-3.394,20.956-16.3,24.942-21.864-4.025,5.052-19.062,17.838-25.613,19.377-8.169,1.894-30.191,5.486-39.939,8.327-7.893,2.289-15,10.5-17.6,16.141-4.381,9.472-5.407,26.639-5.407,41.438h3.631c3.789-49.41,15.944-55.843,44.753-60.066C171.154,635.432,175.021,634.682,179.718,633.064Z" transform="translate(-116.021 -562.895)" fill="#e8d7d3"/><path d="M309.434,668.22s-6-1.894-8.367-2.8C288.715,660.682,248.5,657.6,248.5,657.6s42.346,1.7,51.66,3.276c-.553-5.644-3.591-23.679-3.591-23.679s6.078,19.89,7.577,24.942C304.974,664.786,309.434,668.22,309.434,668.22Zm12.787-1.618a2.552,2.552,0,0,0-.355.316A.931.931,0,0,0,322.221,666.6Zm-12.787,1.618s3.433,3.552,5.13,3.591c2.25.079,5.722-3.433,7.3-4.854-1.5,1.144-4.933,1.658-6.275,1.7C314.012,668.693,309.434,668.22,309.434,668.22Zm24.9-8.919c-1.815.276-5.209.947-5.209.947l2.723-17.641c-.75,3.631-5.288,19.18-9.629,23.995,2.25-1.894,7.3-2.841,9.866-3.2,12.116-1.776,12.116-1.736,48.621-5.841C380.708,657.564,346.294,657.367,334.336,659.3Z" transform="translate(-196.169 -578.634)" fill="#ca9b8e"/><path d="M347.323,580.911c-2.6-5.6-9.708-13.931-17.6-16.26-9.748-2.842-31.769-6.275-39.939-8.209-6.551-1.539-19.733-13.379-24.35-17.325a5.114,5.114,0,0,1-1.539-3.276c-.158-12.866,4.973-47.042,4.973-47.042H199.8s5.13,34.177,4.973,47.042a4.929,4.929,0,0,1-1.539,3.276c-4.617,3.986-17.8,15.825-24.35,17.325-8.169,1.894-30.191,5.486-39.939,8.327-7.893,2.289-15,10.5-17.6,16.141-4.381,9.472-5.446,26.639-5.446,41.438H352.69C352.73,607.55,351.7,590.383,347.323,580.911Z" transform="translate(-115.9 -488.8)" fill="none"/></g><g transform="translate(94.428 177.69)"><path d="M367.088,562.586c16.733,0,22.5-5.683,28.691-10.932-.079-7.972,1.776-23.6,3.236-34.65-18.549-2.6-45.306-2.6-63.815,0,1.46,11.05,3.315,26.678,3.236,34.65C344.593,556.863,350.355,562.586,367.088,562.586Z" transform="translate(-335.2 -515.05)" fill="url(#e)"/></g><g transform="translate(0 201.744)"><path d="M244.3,707.072l1.579-72.063s12.076-2.96,19.693-7.459c20.719,26.008,82.245,20.522,92.743-.75,1.776.631,3.236,1.421,5.052,2.013a39.288,39.288,0,0,0,10.892,5.328l1.105,73.05C358.472,707.388,244.3,707.072,244.3,707.072Z" transform="translate(-185.745 -606.752)" fill="#f5f4f5"/><path d="M368.912,641.835c-5.012-.868-9-2.013-11.208-4.183-6.314,11.879-31.69,19.377-40.1,20.482,24.35-7.419,34.571-12.787,38.6-25.534,2.368,2.8,7.735,4.183,14.563,5.367Zm-119.974-3.947c1.736-.355,2.565-1.46,4.3-1.894l-1.815-2.21c-3.67,2.644-10.616,3.907-18.825,5.249l.237,4.42a69.568,69.568,0,0,0,13.536-3.946c8.84,10.063,22.692,15,36.781,17.049C265.474,652.333,255.332,645.15,248.939,637.888Z" transform="translate(-178.663 -610.263)" fill="#fff"/><path d="M380.2,633.1c-7.025,13.458-60.066,29.125-89.98,1.026-1.855.71-7.419,2.486-7.419,2.486,21.785,27.31,85.639,27.507,102.649-.118A41.043,41.043,0,0,0,380.2,633.1Z" transform="translate(-209.051 -610.565)" fill="#dfdde2"/><path d="M358.236,626.4c-11.958,21.982-74.076,25.1-92.624.75-6.788,1.855-13.3,5.762-19.851,6.748L244.3,706.83l131.063.118-1.026-73.879c-3.986-.829-7.7-3.236-10.971-4.617C361.59,627.7,360.09,627.031,358.236,626.4Zm-93.059,1.5c16.457,27.349,81.5,21.864,94.045.119,1.539.592,1.894.829,3.67,1.381-12.984,25.1-77.312,33.111-103.635,1.342C259.415,630.7,263.322,628.531,265.177,627.9Zm-7.222,3.907c21.272,32.006,91.48,27.073,106.043-1.539a23.412,23.412,0,0,0,9.393,4.42l1.973,69.932H244.695l2.25-69.024C250.22,634.017,255.508,632.793,257.955,631.807Z" transform="translate(-185.745 -606.51)" fill="#b8b6c9"/><path d="M99.992,676.386c-3.039-16.417-2.723-56.356,10.656-56.277,15.549-6.275,34.65-13.5,50.673-18.114,8.169-8.564,15.9-16.733,31.02-25.218.474,3.078,2.21,10.1,0,13.931-1.618,2.8-6.827,6.591-11.326,9.906-2.407,3.236-4.657,6.354-7.814,10.774,6.117,26.4,11.366,39.978,11.958,62.907,0,0-1.736.829,76.325.474,2.6-26.442,5.92-39.741,12.274-64.052,0,0-5.091-5.92-8.524-10.5-2.447-2.368-9.906-8.919-10.458-10.261-1.381-3.236-.631-7.34.118-13.458,12.787,5.762,20.127,14.247,30.862,25.218,9.156,2.526,36.545,11.8,50.239,18,4.7-.118,7.34,2.368,9.314,6.472,6.393,13.26,4.894,32.322,2.565,50.673C325.377,676.9,164.438,679.464,99.992,676.386Z" transform="translate(-97.438 -576.303)" fill="#a44949"/><path d="M239.654,585.1c.2,1.263.355,2.486.474,3.591-.276.316-20.364,27.665-20.522,27.862C224.579,605.306,231.643,593.664,239.654,585.1Zm61.8,0c-.2,1.263-.237,2.486-.355,3.591.276.316,20.048,26.6,20.206,26.8C316.059,605.03,309.468,593.664,301.457,585.1Zm46.1,36.821c-5.052,7.38-6.157,9.906-11.682,17.246,1.263,0,3.315.2,4.578.2C344.789,631.906,344.789,628.117,347.552,621.921Zm5.209,53.515c4.5-10.537,8.209-19.772,12.708-30.349l-1.46-2.368C360.26,653.572,356.274,664.583,352.761,675.435Zm-151.98-36.11c1.263,0,3.315-.2,4.578-.2-5.565-7.3-6.63-7.775-11.682-15.155C196.44,630.209,196.48,631.906,200.781,639.325Zm-23.521,3.394-1.46,2.368c4.5,10.537,5.643,19.811,10.143,30.349C182.391,664.583,181.009,653.572,177.26,642.719Z" transform="translate(-144.279 -581.509)" fill="#953333"/><path d="M312.9,607.273c1.381-1.934,6.2-8.6,10.182-14.878C324.266,598.867,322.1,602.7,312.9,607.273ZM384.055,592a145.846,145.846,0,0,0,10.261,15.155C384.371,602.616,383.7,598,384.055,592Z" transform="translate(-227.272 -585.686)" fill="#852121"/><path d="M255.524,576.7a1.711,1.711,0,0,1,.039-.2c21.43,11.84,33.822,29.638,48.226,42.9-.513.868-1.46,1.421-2.013,2.25C286.7,610.124,279.518,592.76,255.524,576.7Zm-64.644.789c-17.8,9.708-42.9,39.5-45.385,41.754.513.868.829.671,1.381,1.539C161.952,609.256,166.1,597.89,190.88,577.487Zm145.784,42.227c-1.184-.947-29.165-11.879-50.436-17.72,39.9,19.3,53.988,21.943,60.934,28.809C346.727,629.62,345.82,619.477,336.664,619.714ZM162.149,601.8a436.9,436.9,0,0,0-50.87,18.351c-6.354.118-10.892,9.393-11.879,19.062C108.2,619.241,103.86,632.659,162.149,601.8Z" transform="translate(-98.03 -576.303)" fill="#b36262"/><path d="M348.454,645.893c-.395-10.221-3.631-27.349-13.852-26.6-.829-.71-24.666-11.563-50.081-18.47C275.8,591.983,264.986,579.986,253.3,576c-.829,7.617-1.736,12.589.237,15.036a47.039,47.039,0,0,0,8.959,7.735,130.206,130.206,0,0,0,9.629,11.563c-6.433,24.508-10.419,37.058-12.984,63.578H185.306c-2.565-26.481-6.551-39.07-12.984-63.578a130.2,130.2,0,0,0,9.629-11.563,44.393,44.393,0,0,0,8.959-7.735c2.013-2.486,1.105-7.459.237-15.036-11.682,3.986-22.535,15.983-31.217,24.823-25.415,6.906-49.213,17.759-50.081,18.47-10.221-.75-13.458,16.378-13.852,26.6-.474,12.431,1.7,29.52,1.894,30.7H346.56C346.758,675.412,348.928,658.285,348.454,645.893ZM190.279,590.4a62.406,62.406,0,0,1-7.656,6.235c5.722-7.419,5.13-6.433,9.116-13.3C191.9,586.3,190.792,589.852,190.279,590.4ZM100.1,674.268c-1.263-15.194-3.433-28.888.513-43.806,1.5-5.722,2.96-9.59,8.84-10.064,1.263,6.551,9.629,34.019,16.93,52.725-7.38-28.652-6.275-22.258-9.748-33.7-1.145-3.828-2.21-7.7-3.512-11.445-.908-2.6-1.973-5.209-2.684-7.893l47.871-17.6c-.316.316-15.273,15.9-15.628,16.339,2.171,3.591,9.235,8.564,12.826,13.931-14.72,1.381-21.9,3.749-27.231,4.539.395,1.1,10.734,30.033,11.8,32.756-1.736-9.393-5.683-24.034-10.221-32.2,1.658-.2,21.39-2.96,27.7-4.1-1.736-3.394-9.511-9.985-13.694-14.957,24.429-21.508,30.112-32.44,46.884-41.991.2,1.776.513,3.552.671,5.367-18.706,27.862-20.877,27.9-20.877,27.9,5.446,21.074,12.471,42.425,12.471,64.012ZM254.212,590.4c-.513-.513-1.658-4.1-1.46-7.025,3.986,6.867,3.394,5.88,9.116,13.3A66.455,66.455,0,0,1,254.212,590.4Zm90.178,83.863-82.877-.2c0-21.587,7.025-42.938,12.471-64.012,0,0-2.21-.039-20.877-27.9.118-1.776.474-3.552.671-5.367,16.773,9.551,22.416,20.482,46.884,41.991-4.144,4.933-11.918,11.563-13.694,14.957,6.275,1.184,26.007,3.907,27.7,4.1-4.538,8.169-8.485,22.85-10.221,32.2,1.066-2.723,11.405-31.651,11.8-32.756-5.328-.789-12.51-3.157-27.231-4.539,3.591-5.367,10.656-10.34,12.826-13.931-.355-.434-15.312-16.023-15.628-16.339l47.871,17.6c-.71,2.684-1.736,5.249-2.684,7.893-1.342,3.789-2.368,7.617-3.512,11.445-3.433,11.406-2.368,5.052-9.748,33.7,7.3-18.706,15.668-46.174,16.931-52.725,5.88.474,7.3,4.341,8.84,10.064C347.863,645.34,345.692,659.034,344.39,674.268Z" transform="translate(-95.929 -576)" fill="#761111"/></g><g transform="translate(45.305)"><g transform="translate(0 112.915)"><path d="M229.264,357.422c-1.144-2.96-9.551-7.1-13.26-6.433-4.183.75-5.722,5.17-5.17,8.446,1.3,7.7,4.736,10.932,6.275,16.93,1.3,5.052,4.065,7.972,5.446,10.1,1.7,2.644,3.236,8.682,3.591,9.59.553,1.381,2.486,4.775,5.92,4.617,3.947-.2,8.919-7.932,9-9.629C241.459,381.693,232.224,365.078,229.264,357.422Z" transform="translate(-210.726 -350.917)" fill="#d9b8af"/><path d="M233.025,392.924a3.061,3.061,0,0,0-.118-2.407c-.789-1.46-2.881-4.1-3.355-5.683-.395-1.3-.2-4.065-.237-5.446-.118-2.407-1.776-4.065-2.289-5.446-3.433-9.235-8.051-14.957-10.656-16.141-1.934,4.736-.395,8.169,2.289,15.431-1.618-9.866-.079-12.945-.079-12.945s4.775,4.1,7.1,13.221c.434,1.658-1.3,5.091-.987,6.749.434,2.092,4.973,6.157,6.235,7.854A23.55,23.55,0,0,1,233.025,392.924Z" transform="translate(-213.618 -355.084)" fill="#ab6957"/></g><g transform="translate(131.394 112.915)"><path d="M555.477,357.422c1.145-2.96,9.551-7.1,13.26-6.433,4.183.75,5.722,5.17,5.17,8.446-1.3,7.7-4.736,10.932-6.275,16.93-1.3,5.052-4.065,7.972-5.446,10.1-1.7,2.644-3.236,8.682-3.591,9.59-.552,1.381-2.486,4.775-5.92,4.617-3.947-.2-8.919-7.932-9-9.629C543.243,381.693,552.478,365.078,555.477,357.422Z" transform="translate(-543.662 -350.917)" fill="#d9b8af"/><path d="M571.1,392.924a3.061,3.061,0,0,1,.118-2.407c.789-1.46,2.881-4.1,3.354-5.683.395-1.3.2-4.065.237-5.446.118-2.407,1.776-4.065,2.289-5.446,3.434-9.235,8.051-14.957,10.656-16.141,1.934,4.736.395,8.169-2.289,15.431,1.618-9.866.079-12.945.079-12.945s-4.775,4.1-7.1,13.221c-.434,1.658,1.3,5.091.987,6.749-.434,2.092-4.973,6.157-6.235,7.854A21.441,21.441,0,0,0,571.1,392.924Z" transform="translate(-560.152 -355.084)" fill="#ab6957"/></g><g transform="translate(8.948 23.954)"><path d="M305.463,125.5c-39.82.079-72.142,32.953-72.063,73.484a74.366,74.366,0,0,0,2.368,18.628h0c0,.079,13.655,45.977,16.615,61.052,1.618,8.406,11.6,15.983,20.443,22.179,8.248,5.762,12.471,14.089,32.638,14.089s24.389-8.288,32.638-14.089c8.84-6.2,18.785-13.773,20.443-22.179,2.92-15.076,16.575-61.013,16.615-61.052h0a74.365,74.365,0,0,0,2.368-18.628C377.605,158.453,345.283,125.579,305.463,125.5Z" transform="translate(-233.4 -125.5)" fill="#d9b8af"/><path d="M360.833,192.6a76.893,76.893,0,0,1,11.8,62.986h0c0,.079-13.181,45.977-15.983,61.052-1.579,8.406-11.208,15.983-19.733,22.179-7.972,5.762-12,14.089-31.454,14.089s-23.482-8.288-31.454-14.089c-8.525-6.2-18.154-13.773-19.733-22.179-2.841-15.076-15.983-61.013-15.983-61.052h0A76.21,76.21,0,0,1,236,236.959a75.251,75.251,0,0,1,14.089-44.319,74.5,74.5,0,0,0-14.326,65.63h0c0,.079,13.655,45.977,16.615,61.052,1.618,8.406,11.6,15.983,20.443,22.179,8.248,5.762,12.471,14.089,32.638,14.089S329.853,347.3,338.1,341.5c8.84-6.2,18.785-13.773,20.443-22.179,2.92-15.076,16.575-61.013,16.615-61.052h0a74.367,74.367,0,0,0,2.368-18.628A73.613,73.613,0,0,0,360.833,192.6Z" transform="translate(-233.4 -166.119)" fill="#d1a99e"/><path d="M305.463,125.5c-39.82.079-72.142,32.953-72.063,73.484a74.366,74.366,0,0,0,2.368,18.628h0c0,.079,13.655,45.977,16.615,61.052,1.618,8.406,11.6,15.983,20.443,22.179,8.248,5.762,12.471,14.089,32.638,14.089s24.389-8.288,32.638-14.089c8.84-6.2,18.785-13.773,20.443-22.179,2.92-15.076,16.575-61.013,16.615-61.052h0a74.365,74.365,0,0,0,2.368-18.628C377.605,158.453,345.283,125.579,305.463,125.5Z" transform="translate(-233.4 -125.5)" fill="none"/></g><g transform="translate(60.292 177.197)"><path d="M410,546.01c-3.355.158-4.3-3.276-4.3-3.276a22.556,22.556,0,0,0,8.288-.434C413.948,542.34,412.962,545.891,410,546.01Z" transform="translate(-389.046 -531.052)" fill="url(#f)"/><path d="M410.054,543.49a28.038,28.038,0,0,1-4.578-.118.3.3,0,1,1,.039-.592c.039,0,4.854.474,7.972-.395a.287.287,0,1,1,.158.553A17.507,17.507,0,0,1,410.054,543.49Z" transform="translate(-388.743 -531.098)" fill="#ab6957"/><path d="M363.5,513.8s14.839,1.776,19.811,1.776c5.407,0,22.811-1.776,22.811-1.776-5.052,4.183-10.577,8.209-23.166,8.288C371.748,522.167,368.867,518.062,363.5,513.8Z" transform="translate(-363.5 -513.8)" fill="#fff"/><path d="M363.5,513.8s14.839,1.776,19.811,1.776c5.407,0,22.811-1.776,22.811-1.776-5.052,4.183-10.577,8.209-23.166,8.288C371.748,522.167,368.867,518.062,363.5,513.8Z" transform="translate(-363.5 -513.8)" fill="none"/></g><g transform="translate(27.497 93.965)"><g transform="translate(6.603 21.863)"><path d="M299.487,371.56c2.881,2.763,8.011,3.078,15.391,3.078s11.682-1.618,13.458-4.736c2.131-3.789-4.578-11.6-15.273-11.6C306.2,358.26,291.4,363.785,299.487,371.56Z" transform="translate(-297.132 -358.299)" fill="url(#g)"/></g><g transform="translate(16.22 23.087)"><path d="M335.207,367a7.1,7.1,0,1,1-7.1-7.1A7.125,7.125,0,0,1,335.207,367Z" transform="translate(-321 -359.9)" fill="#201912"/><path d="M325.549,372.619c1.026-.079.118-.355.118-.355-.513-.276-1.46-.71-1.46-1.105,0-1.223,1.658-1.539-.039-2.013-1.776-1.618,1.381-1.618,1.342-1.658-1.144-2.8.355-1.263.987-2.092,2.368-3.078.671.316,1.934,0,.474-.118-.908-1.815.039-1.579a1.094,1.094,0,0,1,.789.671,3.284,3.284,0,0,0,1.184-.789c.868.276,1.5,1.539,1.223,1.3a12.631,12.631,0,0,0,1.539-.395s.079-.276.158-.039c1.1,3.157,3.907,2.92.671,3.828,0,0-.2,0,.434.513,3.2,2.565-2.486,1.776.552,2.96.118-.118-1.815,1.144-1.815,1.5,0,.592-1.223,2.171-2.289,1.539-.592-.355-.671.71-1.026.237-.671-.947-2.052-.039-1.539-.908.75-.631-.789.237-1.066.237-.987,0,1.263-3.276,4.617-.829.987.71-1.026-1.7.75-1.7.158.039.118-.631.118-.789-.908-.2,1.658,0,1.658-1.5.158.039.592-.395-1.934,0a8.271,8.271,0,0,1-.039-1.065c.118-.513,1.421-.355,1.066-.908l-.947-1.894c-3.039-.474-1.3-.789-3.2-.395-.079.434-4.065,2.368-3.946,3.236.118.829,2.486,1.1.237,2.565C328.983,377.631,323.1,371.041,325.549,372.619Z" transform="translate(-322.589 -362.2)" fill="#2f271f"/><path d="M329.5,362.1l.2,5.209,2.171-4.736-1.815,4.894,3.828-3.552-3.552,3.828,4.894-1.815-4.736,2.171,5.209.2-5.209.2,4.736,2.171-4.894-1.815,3.552,3.828-3.828-3.552,1.815,4.894-2.171-4.736-.2,5.209-.2-5.209-2.171,4.736,1.815-4.894-3.828,3.552,3.552-3.828-4.894,1.815,4.736-2.171-5.209-.2,5.209-.2-4.736-2.171,4.894,1.815-3.552-3.828,3.828,3.552-1.815-4.894,2.171,4.736Z" transform="translate(-322.392 -361.232)" fill="#010100"/><path d="M332.622,366.1l-.631,3.907,2.328-3.2-2.092,3.394,3.394-2.052-3.236,2.328,3.946-.592-3.868.908,3.868.947-3.946-.631,3.2,2.328-3.394-2.092,2.052,3.394-2.328-3.236.592,3.946-.908-3.867-.947,3.867.631-3.907-2.368,3.2L331,371.349,327.61,373.4l3.236-2.328-3.946.592,3.868-.908-3.868-.947,3.907.631-3.2-2.328L331,370.2l-2.052-3.394,2.328,3.236-.592-3.947.908,3.868Z" transform="translate(-324.572 -363.653)"/><path d="M337.567,373.784a2.684,2.684,0,1,1-2.684-2.684A2.686,2.686,0,0,1,337.567,373.784Z" transform="translate(-327.78 -366.68)" opacity="0.9"/><path d="M328.416,387.316c-.395.395-1.184.237-1.736-.316s-.71-1.342-.316-1.736,1.184-.237,1.736.316C328.692,386.171,328.811,386.921,328.416,387.316Z" transform="translate(-324.114 -375.121)" fill="#fff" opacity="0.7"/><path d="M346.558,367.432c-.592.592-2.013.118-3.157-1.066-1.184-1.184-1.618-2.6-1.066-3.157.592-.592,2.013-.118,3.157,1.066C346.677,365.459,347.15,366.879,346.558,367.432Z" transform="translate(-333.772 -361.749)" fill="#fff" opacity="0.9"/></g><path d="M280.4,326.579c0,16.339,10.064,35.519,22.5,35.519s22.5-13.26,22.5-29.6-10.064-29.6-22.5-29.6S280.4,310.241,280.4,326.579Zm8.959,11.445c-8.13-7.775,6.67-13.3,13.536-13.3,10.7,0,17.444,7.814,15.273,11.6-1.776,3.157-6.078,4.736-13.458,4.736C297.37,341.1,292.24,340.786,289.359,338.024Z" transform="translate(-280.4 -302.9)" fill="#d9b8af"/><path d="M292.1,351.862c-.079,8.84,10.221,15.944,21.351,15.9s20.127-7.222,20.088-16.062-9.038-15.944-20.167-15.9C302.242,335.879,292.218,339.786,292.1,351.862Zm17.917-6.985c10.7,0,17.444,7.735,15.273,11.484-1.776,3.118-6.078,4.7-13.458,4.7s-12.51-.316-15.391-3.039C288.35,350.323,303.15,344.877,310.016,344.877Z" transform="translate(-287.482 -322.816)" fill="url(#h)"/><path d="M299.487,371.56c2.881,2.763,8.011,3.078,15.391,3.078s11.682-1.618,13.458-4.736c2.131-3.789-4.578-11.6-15.273-11.6C306.2,358.26,291.4,363.785,299.487,371.56Z" transform="translate(-290.529 -336.436)" fill="url(#i)"/><path d="M328.816,357.151c.395-.395-5.6-8.919-15.826-9.274-10.813-.395-19.89,7.143-19.89,7.143s9.827-7.1,19.614-6.591C324.08,349.022,328.461,357.467,328.816,357.151Z" transform="translate(-288.088 -330.118)" fill="#ab6957"/><path d="M322.614,366.847l.395-2.723c-3.946-10.3-18.391-13.181-30.467-2.486a1.96,1.96,0,0,0-.553,2.171l3.2,5.328a42.312,42.312,0,0,1-5.841-6.906l-1.145-.592c15.273-14.642,32.085-11.208,37.571,1.815l-1.342-.2ZM318,369.767a73.29,73.29,0,0,1-15.707.908A31.8,31.8,0,0,0,318,369.767Z" transform="translate(-285.122 -332.67)" fill="#131111"/></g><g transform="translate(87.997 93.965)"><g transform="translate(7.854 21.863)"><path d="M482.844,371.56c-2.881,2.763-8.011,3.078-15.391,3.078S455.771,373.02,454,369.9c-2.131-3.789,4.578-11.6,15.273-11.6C476.135,358.26,490.935,363.785,482.844,371.56Z" transform="translate(-453.601 -358.299)" fill="url(#j)"/></g><g transform="translate(16.102 23.087)"><g transform="translate(0)"><path d="M489.207,367a7.1,7.1,0,1,1-7.1-7.1A7.125,7.125,0,0,1,489.207,367Z" transform="translate(-475 -359.9)" fill="#201912"/><path d="M479.489,372.619c1.026-.079.118-.355.118-.355-.513-.276-1.5-.71-1.5-1.105,0-1.223,1.7-1.539-.039-2.013-1.776-1.618,1.381-1.579,1.342-1.658-1.144-2.8.355-1.263.987-2.092,2.328-3.078.671.316,1.934,0,.474-.118-.947-1.815.039-1.579a1.094,1.094,0,0,1,.789.671,3.285,3.285,0,0,0,1.184-.789c.908.276,1.5,1.539,1.223,1.3a12.634,12.634,0,0,0,1.539-.395s.079-.276.158-.039c1.066,3.157,3.868,2.92.671,3.828,0,0-.2,0,.434.513,3.2,2.565-2.486,1.776.552,2.96.118-.118-1.815,1.144-1.815,1.5,0,.592-1.223,2.131-2.289,1.539-.592-.355-.71.71-1.026.237-.671-.947-2.052-.039-1.539-.908.75-.631-.789.237-1.066.237-.987,0,1.263-3.276,4.617-.829.987.71-1.026-1.7.75-1.7.158.039.118-.631.118-.789-.947-.2,1.618,0,1.618-1.5.158.039.592-.395-1.934,0a8.271,8.271,0,0,1-.039-1.065c.118-.513,1.421-.355,1.066-.908l-.947-1.894c-3.039-.474-1.3-.789-3.236-.395-.079.434-4.065,2.368-3.947,3.236.118.829,2.526,1.1.237,2.565C482.922,377.671,477.042,371,479.489,372.619Z" transform="translate(-476.529 -362.2)" fill="#2f271f"/><path d="M483.5,362.1l.2,5.209,2.171-4.736-1.815,4.894,3.828-3.552-3.552,3.828,4.894-1.815-4.736,2.171,5.209.2-5.209.2,4.736,2.171-4.894-1.815,3.552,3.828-3.828-3.552,1.815,4.894-2.171-4.736-.2,5.209-.2-5.209-2.171,4.736,1.815-4.894-3.828,3.552,3.552-3.828-4.894,1.815,4.736-2.171-5.209-.2,5.209-.2-4.736-2.171,4.894,1.815-3.552-3.828,3.828,3.552-1.815-4.894,2.171,4.736Z" transform="translate(-476.392 -361.232)" fill="#010100"/><path d="M486.744,366.1l-.631,3.907,2.328-3.2-2.092,3.394,3.394-2.092-3.236,2.328,3.907-.592-3.868.908,3.868.947-3.907-.631,3.2,2.328-3.394-2.092,2.052,3.394-2.328-3.236.592,3.907-.908-3.868-.947,3.868.631-3.907-2.328,3.2,2.092-3.394-3.394,2.092,3.236-2.328-3.907.592,3.868-.908-3.868-.947,3.907.631-3.2-2.328,3.394,2.092-2.052-3.394,2.328,3.236-.592-3.907.908,3.868Z" transform="translate(-478.693 -363.653)"/><path d="M491.567,373.784a2.684,2.684,0,1,1-2.684-2.684A2.686,2.686,0,0,1,491.567,373.784Z" transform="translate(-481.78 -366.68)" opacity="0.9"/><path d="M482.416,387.316A1.263,1.263,0,0,1,480.68,387c-.552-.552-.71-1.342-.316-1.736s1.184-.237,1.736.316C482.692,386.171,482.811,386.921,482.416,387.316Z" transform="translate(-478.114 -375.121)" fill="#fff" opacity="0.7"/><path d="M500.519,367.432c-.592.592-2.013.118-3.2-1.066s-1.618-2.6-1.026-3.157c.592-.592,2.013-.118,3.157,1.066C500.638,365.459,501.111,366.879,500.519,367.432Z" transform="translate(-487.732 -361.749)" fill="#fff" opacity="0.9"/></g></g><path d="M458.9,302.9c-12.432,0-22.5,13.26-22.5,29.6s10.064,29.6,22.5,29.6,22.5-18.351,22.5-34.729S471.327,302.9,458.9,302.9ZM457,341.1c-7.38,0-11.682-1.618-13.458-4.736-2.131-3.789,4.578-11.6,15.273-11.6,6.867,0,21.666,5.525,13.537,13.3C469.551,340.786,464.42,341.1,457,341.1Z" transform="translate(-435.334 -302.9)" fill="#d9b8af"/><path d="M453.866,335.8c-11.129-.039-20.167,7.064-20.167,15.9-.039,8.84,8.959,16.023,20.088,16.062s21.43-7.064,21.351-15.9C475.02,339.786,465,335.879,453.866,335.8ZM470.8,358.058c-2.881,2.723-8.011,3.039-15.391,3.039s-11.682-1.579-13.458-4.7c-2.131-3.749,4.578-11.484,15.273-11.484C464.088,344.877,478.887,350.323,470.8,358.058Z" transform="translate(-433.7 -322.816)" fill="url(#k)"/><path d="M482.844,371.56c-2.881,2.763-8.011,3.078-15.391,3.078S455.771,373.02,454,369.9c-2.131-3.789,4.578-11.6,15.273-11.6C476.135,358.26,490.935,363.785,482.844,371.56Z" transform="translate(-445.747 -336.436)" fill="url(#l)"/><path d="M447.172,357.151c-.395-.395,5.6-8.919,15.826-9.274,10.813-.395,19.89,7.143,19.89,7.143s-9.827-7.1-19.614-6.591C451.908,349.022,447.527,357.467,447.172,357.151Z" transform="translate(-441.844 -330.118)" fill="#ab6957"/><path d="M448.542,363.255l-1.342.2c5.486-13.024,22.3-16.457,37.571-1.815l-1.144.592a41.957,41.957,0,0,1-5.841,6.906l3.2-5.328a1.96,1.96,0,0,0-.553-2.171c-12.076-10.7-26.52-7.814-30.467,2.486l.395,2.723Zm22.219,7.419a70.822,70.822,0,0,1-15.707-.908A31.8,31.8,0,0,0,470.761,370.675Z" transform="translate(-441.872 -332.67)" fill="#131111"/></g><g transform="translate(32.47 42.463)"><path d="M390.084,390.4a48.542,48.542,0,1,1-48.621-48.5A48.524,48.524,0,0,1,390.084,390.4Z" transform="translate(-293 -275.007)" fill="url(#m)"/><path d="M392.3,216.8a44.4,44.4,0,1,1-44.4-44.4A44.414,44.414,0,0,1,392.3,216.8Z" transform="translate(-299.356 -172.4)" fill="url(#n)"/></g><g transform="translate(24.774 101.562)"><path d="M273.5,330.97c8.84-11.09,24.074-9.274,36.545-7.459,3.157.474,6.433.789,9.551,1.579,2.25.553,3.986,3.118,2.21,5.17-.829.987-2.684.789-3.789.789C303.059,330.694,286.168,322.13,273.5,330.97Z" transform="translate(-273.5 -322.149)" fill="#211b22"/></g><g transform="translate(88.238 101.574)"><path d="M483.4,330.555a21.448,21.448,0,0,0-8.327-3.433c-11.248-1.815-32.677,5.683-38.281,4.1-3.433-.987-2.763-4.42-1.223-5.288.908-.513,1.184-.513,9.353-1.894C458.853,321.636,474.442,319.742,483.4,330.555Z" transform="translate(-434.31 -322.181)" fill="#211b22"/></g><g transform="translate(71.184 149.611)"><path d="M403.707,474.928c-3.078-.079-8.564-3.276-7.893-6.117.592-2.644,4.065.947,8.011.987s8.682-2.328,9.235.316C413.968,474.455,408.679,475.086,403.707,474.928Z" transform="translate(-393.919 -458.392)" fill="#d1a99e"/><path d="M407.793,458.857a.592.592,0,0,0,.947,0,1.008,1.008,0,0,0,.039-1.184c-1.855-2.407-5.209.829-4.933,1.144C403.926,458.936,406.373,457.042,407.793,458.857Zm-13.852-6.117c.395,2.526,1.184,5.92,7.7,7.735-6.433-.2-10.577-1.381-10.537-7.341,0-3,3.157-9.235,3.157-9.235S393.546,450.057,393.941,452.74Z" transform="translate(-391.099 -443.9)" fill="#ab6957"/></g><g transform="translate(81.012 44.397)"><path d="M416,177.3Z" transform="translate(-416 -177.3)" fill="#2a232b"/></g><g transform="translate(81.012 44.397)"><path d="M416,177.3Z" transform="translate(-416 -177.3)" fill="#2a232b"/></g><g transform="translate(2.859)"><path d="M234.214,200.752c-2.881-10.419-4.42-19.575-6.551-29.125l.079-.039c-.829-2.013-3.749-17.838-3.789-18-3-21.035,5.92-22.258,5.722-31.02,3.749,1.894,7.38.947,10.7-1.618-3.473-1.776-2.368-2.052-6.946-4.854,3.236-.553,5.13.2,7.854.553-2.328-2.328-6.946-7.143-9.945-6.512l-.2-.434c4.341-3.394,10.1,3.67,15.352,1.736.158-19.377,28.494-23.4,35.4-26.284,9.2-3.512,18.785-11.169,25.534-11.879a23.585,23.585,0,0,0-6.314,14.642c5.565-5.328,5.959-5.17,14.4-14.523,0,7.538-2.092,8.485-4.815,12.905,7.341-4.815,16.536-18.351,30.625-20.4l.158.434c-5.091,3-9.037,8.051-11.721,15.036,2.684-3.236,6.472-6.709,10.656-7.38l.158.434c-2.6,1.579-7.775,6.788-8.919,15.549a48.5,48.5,0,0,1,19.1-12.392l.237.395c-5.209,4.223-7.3,11.642-8.445,17.917,3.631-5.407,5.762-6.67,10.34-8.919A24.1,24.1,0,0,0,350.32,91.2c2.841,7.262,12.195,7.538,13.813,20.206a44.493,44.493,0,0,1,4.933-3.67l.316.316c-1.658,2.6-3.039,7.183-3.946,10.261,3.276-2.526,8.367-4.381,11.958-5.644l.237.395c-3.039,3.078-6.67,7.735-7.3,12.826a24.146,24.146,0,0,0,2.763-1.736c0,3.631.118,3.2.158,4.854a29.318,29.318,0,0,0,2.684-2.565c-.2,38.321-2.171,30.664-7.5,57.382-.947,4.7-2.565,12.866-3.631,16.812l-7.143,1.223c2.21-26.521-.118-20.719,1.5-37.413,2.368-24.587-17.522-44.753-43.846-38.163-5.328,1.342-26.56,1.342-31.888,0-29.046-7.3-39.544,9.669-42.662,39.386-1.539,14.6-1.894,9.669.316,36.189Z" transform="translate(-221.219 -65.467)" fill="#1e1b1e"/><path d="M373.15,129.2c-.039-1.7-.158-1.223-.158-4.854a24.149,24.149,0,0,1-2.763,1.736c.592-5.091,4.262-9.748,7.3-12.826l-.237-.395c-3.591,1.3-8.643,3.157-11.958,5.643.908-3.078,2.289-7.656,3.947-10.261l-.316-.316a43.268,43.268,0,0,0-4.933,3.67c-1.618-12.668-10.971-12.945-13.813-20.206a21.926,21.926,0,0,1,2.565-4.223c-4.578,2.289-6.709,3.512-10.34,8.919,1.184-6.314,3.276-13.694,8.446-17.917l-.237-.395a48.658,48.658,0,0,0-19.1,12.392c1.184-8.761,6.314-13.971,8.919-15.549l-.158-.434c-4.183.631-7.972,4.144-10.656,7.38,2.684-6.985,6.63-12.037,11.721-15.036l-.158-.434c-14.128,2.052-23.284,15.589-30.625,20.4,2.723-4.42,4.815-5.367,4.815-12.905-8.446,9.353-8.84,9.2-14.4,14.523a23.9,23.9,0,0,1,6.314-14.642c-6.749.671-16.339,8.367-25.534,11.879-6.906,2.881-35.242,6.906-35.4,26.284-5.209,1.894-11.011-5.13-15.352-1.736l.2.434c3-.631,7.617,4.144,9.945,6.512-2.763-.355-4.617-1.105-7.854-.553,4.578,2.8,3.512,3.078,6.946,4.854-3.276,2.565-6.946,3.512-10.7,1.618.2,8.761-8.722,9.985-5.722,31.02.039.158,2.96,15.983,3.789,18l-.079.039c2.131,9.551,3.71,18.667,6.551,29.125h.039c-.789-19.456-13.063-47.121-5.841-64.881.947-2.328,4.578-8.406,4.578-8.406s11.405-1.5,11.918-5.92a17.032,17.032,0,0,1-3.552-2.368c2.368,1.184,2.368-2.368,4.736-1.184,0-2.368-3.552-1.184-3.552-3.552,2.368,0,4.736,0,7.1,2.368-1.184-5.92,0-11.84,4.736-15.391,11.84-9.472,27.231-8.288,39.07-17.759-1.184,5.92-2.368,11.84-2.368,17.759,7.1-3.552,9.472-10.656,15.391-15.391,1.184,4.736-1.184,10.656-1.184,15.391,3.552-8.288,8.288-16.575,18.943-18.943-4.736,4.736-4.736,11.84-4.736,17.759,0-4.736,4.736-7.1,5.92-10.656v14.207c2.368-7.1,7.1-10.656,13.023-13.023-4.736,4.736-3.552,9.472-4.736,15.391,3.552-3.552,8.288-4.736,11.84-8.288,3.552,7.1,1.184,13.023,1.184,20.127,1.184-5.92,7.1-9.472,10.656-14.207a44.842,44.842,0,0,1,0,17.759c1.184-3.552,3.552-5.92,4.736-9.472a49.822,49.822,0,0,1-2.328,15.549c1.5-1.736,3.907-2.486,4.7-4.894v14.247c.671-1.421,2.723-1.894,3.552-3.591-1.026,4.025-.316,7.222-.079,11.011.434-2.328,2.684-3.749,3.473-5.88.039-.908.079-1.855.158-2.763a4.3,4.3,0,0,1-.158,2.763c-1.066,21.035-3.078,42.03-7.419,62.315l.75-.118c1.066-3.947,2.684-12.116,3.631-16.812,5.288-26.718,7.262-19.062,7.5-57.382C374.886,127.665,374.649,127.863,373.15,129.2Z" transform="translate(-221.158 -65.588)" fill="#2d2d2d"/><path d="M376.355,111.055a31.759,31.759,0,0,0-13.1,5.052c.474-1.184,2.6-7.893,4.894-10.734a32.021,32.021,0,0,0-6.788,4.144,11.548,11.548,0,0,0-.71-3.355,13.43,13.43,0,0,0-1.5-3.118c-6.117-8.643-6.512-5.012-11.524-11.642a20.223,20.223,0,0,1,3.907-5.959c-4.617.671-7.064,2.447-9.985,5.328a.543.543,0,0,0-.118.158c1.855-7.262,5.446-13.537,12.51-15.9-8.761-.316-19.575,6.157-25.021,12.589,2.368-7.538,5.486-11.169,10.182-14.523a11.926,11.926,0,0,0-9.274,3.039,30.97,30.97,0,0,1,11.09-11.287c-.513,0-1.105-.039-1.776,0-.908-.237-6.472.671-8.485,1.539-9.866,3.868-17.049,12.826-20.127,15.707,2.25-3.67,2.368-6.275,1.973-10.1-.789.671-13.734,13.1-13.931,13.26.908-5.091,2.644-8.209,5.959-12.787-5.841-1.105-20.522,8.564-29.6,11.129-9.511,2.565-33.151,7.972-32.085,26.876-5.091.987-12.55-7.183-16.417-.355,3.118-1.855,7.3,2.6,10.182,5.17-1.184-.2-5.13-1.105-7.064.158,2.25.868,4.223,3.473,6.985,4.854.039,0,.079.039.118.039-2.526,1.342-5.525,2.407-8.288,1.658-.434-.118-.671-.2-.671-.2-.316-.158-.671-.276-1.026-.434h0l-.474-.237c.829,6.63-9.274,12.037-8.13,26.086.474,8.643,5.841,34.927,12.668,52.765l.553.158c-2.841-10.221-4.46-19.811-6.591-29.244-.2,0-3.631-17.8-3.67-18-2.96-20.877,5.92-22.377,5.722-30.585,3.71,1.855,7.735.513,10.853-2.052-3.71-1.855-2.92-2.368-6.709-4.7,2.565-.434,5.683.553,7.854.71-2.763-2.763-7.459-7.7-10.616-7.025,4.223-3.315,10.064,3.868,15.431,1.736,0-19.377,28.1-23.245,35.242-26.244,8.6-3.276,19.259-11.208,24.784-11.761a24.1,24.1,0,0,0-5.959,14.878c5.722-5.486,6.275-5.446,14.4-14.484,0,7.1-2.644,8.406-5.249,12.984,7.577-4.381,16.773-18.746,31.375-20.877-6.117,3.591-9.985,9.866-12.313,16.536,2.8-3.631,6.867-7.735,11.405-8.406-2.368,1.421-8.13,6.827-9.156,16.5,5.13-6.038,13.734-11.05,19.5-12.905-5.446,4.42-7.538,12.274-8.761,19.219,2.013-3.039,3.986-5.8,7.064-7.735l.039-.039a17.768,17.768,0,0,1,3-1.658,18.309,18.309,0,0,0-2.131,3.591c2.881,7.538,12.471,7.577,13.892,20.68a45.6,45.6,0,0,1,5.249-3.947c-1.815,2.841-3.315,8.011-4.223,11.05,3.433-2.96,9.787-5.13,12.471-6.078-3.552,3.591-6.985,8.406-7.419,13.458.71-.474,1.658-.868,2.842-1.736,0,3.236.158,2.8.158,4.933.631-.553,2.052-1.776,2.684-2.486-.237,37.531-2.21,30.27-7.459,56.711-1.973,9.906-3,14.523-3.631,16.891l.513-.118c4.262-12.747,12.708-41.478,12.313-56.356-.039-5.565-1.263-17.167-1.3-18.351-.039.039-2.486,2.328-2.486,2.328,0-.592-.237-3.2-.237-4.578-.434.316-1.3.908-2.486,1.618C369.252,119.658,371.738,116.62,376.355,111.055Z" transform="translate(-217.971 -64.803)"/></g><g transform="translate(81.012 44.397)"><path d="M416,177.3Z" transform="translate(-416 -177.3)" fill="#26120b"/></g></g></g></g></g></g></svg>