<svg xmlns="http://www.w3.org/2000/svg" width="1511" height="424"><defs><linearGradient id="a" x1=".007" y1=".025" x2=".993" y2=".971" gradientUnits="objectBoundingBox"><stop offset="0" stop-color="#f7d95d"/><stop offset="1" stop-color="#f15caa"/></linearGradient><linearGradient id="d" x1=".917" y1=".923" x2=".035" gradientUnits="objectBoundingBox"><stop offset="0" stop-color="#f26ba1"/><stop offset="1" stop-color="#f38f83"/></linearGradient><linearGradient id="e" x1=".947" x2="0" y2=".214" gradientUnits="objectBoundingBox"><stop offset="0" stop-color="#f49d82"/><stop offset="1" stop-color="#ffdc70"/></linearGradient><filter id="b" x="0" y="0" width="1511" height="424" filterUnits="userSpaceOnUse"><feOffset/><feGaussianBlur stdDeviation="11" result="c"/><feFlood flood-color="#f49a85" flood-opacity=".51"/><feComposite operator="in" in2="c"/><feComposite in="SourceGraphic"/></filter></defs><g filter="url(#b)"><rect width="1445" height="358" rx="30" transform="translate(33 33)" fill="url(#a)"/></g><path d="M629.436 696.22s13.579 0 22.443-9.618 8.3-25.838 8.3-25.838l.042-273.237H335.649s-19-1.122-28.216 5.832-8.667 21.988-8.667 21.988V696.4z" transform="translate(817.735 -305.399)" fill="url(#d)"/><path d="M19.984 565.36l201.044-148.773L807.22 345l-758.733.227S37.439 346.34 29.85 352.7s-9.6 18.19-9.6 18.19z" transform="translate(13 -312)" fill="url(#e)"/></svg>