<svg xmlns="http://www.w3.org/2000/svg" width="545" height="946"><defs><linearGradient id="a" x1=".019" y1=".011" x2=".983" y2=".983" gradientUnits="objectBoundingBox"><stop offset="0" stop-color="#c27fff"/><stop offset="1" stop-color="#e99cfc"/></linearGradient><linearGradient id="d" x1=".5" x2=".5" y2="1" gradientUnits="objectBoundingBox"><stop offset="0" stop-color="#c581ff"/><stop offset="1" stop-color="#e095fc"/></linearGradient><linearGradient id="e" x1=".5" x2=".5" y2="1" gradientUnits="objectBoundingBox"><stop offset="0" stop-color="#c87dff"/><stop offset="1" stop-color="#e196fd"/></linearGradient><filter id="b" x="0" y="0" width="545" height="946" filterUnits="userSpaceOnUse"><feOffset/><feGaussianBlur stdDeviation="17.5" result="c"/><feFlood flood-color="#d78ffd" flood-opacity=".561"/><feComposite operator="in" in2="c"/><feComposite in="SourceGraphic"/></filter></defs><g transform="translate(-1229.5 -6016.5)"><g transform="translate(1229.5 6016.5)" filter="url(#b)"><rect width="440" height="841" rx="39" transform="translate(52.5 52.5)" fill="url(#a)"/></g><rect width="348" height="348" rx="39" transform="translate(1374 6562)" opacity=".62" fill="url(#d)"/><rect width="210" height="210" rx="39" transform="translate(1512 6700)" opacity=".62" fill="url(#e)"/><path d="M1334.312 6068.664s161.443.332 160.969 0a148.98 148.98 0 01-85.34 271.089c-54.547 0-101.665-29.81-127.845-73.927.284.312-.582-143.962-.582-143.962s4.826-22.892 18.026-36.192 34.772-17.008 34.772-17.008z" fill="#d38cfe"/><path d="M1325.383 6068.664s134.141.276 133.747 0a123.786 123.786 0 01-70.908 225.244c-45.323 0-84.956-24.689-106.708-61.346.236.259 0-119.7 0-119.7s4.01-19.02 14.977-30.071 28.892-14.127 28.892-14.127z" fill="#d08afd"/><path d="M1316.247 6068.664s106.205.218 105.894 0A98.007 98.007 0 011366 6247c-35.884 0-67.263-19.548-84.486-48.57.187.205 0-94.768 0-94.768s3.175-15.062 11.858-23.809 22.875-11.189 22.875-11.189z" fill="#cd87ff"/></g></svg>