<svg viewBox="0 0 512 512" xmlns="http://www.w3.org/2000/svg"><path d="M316 346c-5.52 0-10 4.48-10 10s4.48 10 10 10 10-4.48 10-10-4.48-10-10-10zm0 0"/><path d="M462 0H50C22.43 0 0 22.43 0 50v306c0 27.57 22.43 50 50 50h156v46h-10c-13.352 0-25.902 5.203-35.352 14.648-9.445 9.45-14.648 22-14.648 35.352 0 5.523 4.477 10 10 10h200c5.523 0 10-4.477 10-10 0-27.57-22.43-50-50-50h-10v-46h156c27.57 0 50-22.43 50-50V50c0-27.57-22.43-50-50-50zM50 20h412c16.543 0 30 13.457 30 30v256h-46V76c0-5.523-4.477-10-10-10h-80c-5.523 0-10 4.477-10 10v230h-50.055a918.982 918.982 0 00-.804-30.43c-1.75-40.726-5.739-68.007-7.813-80.007 20.633-15.192 26.266-43.348 13.652-65.223l-34.66-60.031c-1.789-3.094-5.09-5-8.66-5a9.997 9.997 0 00-8.66 5l-34.676 60.035c-11.89 20.625-7.676 47.34 11.004 63.105-2.164 11.965-6.531 40.223-8.43 82.102a891.6 891.6 0 00-.843 30.449H166V156a9.947 9.947 0 00-.988-4.316c-.028-.051-.043-.106-.067-.157l-40-80a10.003 10.003 0 00-17.89 0l-40 80c-.024.051-.04.106-.063.157A9.94 9.94 0 0066 156v150H20V50c0-16.543 13.457-30 30-30zm316 286V86h60v20h-10c-5.523 0-10 4.477-10 10s4.477 10 10 10h10v30h-10c-5.523 0-10 4.477-10 10s4.477 10 10 10h10v30h-10c-5.523 0-10 4.477-10 10s4.477 10 10 10h10v40h-10c-5.523 0-10 4.477-10 10s4.477 10 10 10h10v20zM257.66 205.309c3.633 0 7.25-.418 10.79-1.2 1.855 11.895 4.581 32.942 6.195 61.891h-37.223c1.691-28.93 4.547-50.305 6.52-62.602a50.061 50.061 0 0013.718 1.91zm0-20c-22.855 0-37.594-24.875-26.012-44.97l26.012-45.03 25.996 45.027c11.54 20.012-2.996 44.973-25.996 44.973zM236.504 286h39.02c.21 6.57.355 13.254.425 20h-39.894c.074-6.703.226-13.387.449-20zM126 306V166h20v140zm-40 0V166h20v140zm6.18-160L116 98.36 139.82 146zm252.105 346H167.703c1.469-4.168 3.867-7.988 7.086-11.21 5.672-5.67 13.203-8.79 21.211-8.79h120c13.04 0 24.16 8.36 28.285 20zM286 452h-60v-46h60zm176-66H50c-16.543 0-30-13.457-30-30v-30h472v30c0 16.543-13.457 30-30 30zm0 0"/><path d="M276 346h-60c-5.523 0-10 4.477-10 10s4.477 10 10 10h60c5.523 0 10-4.477 10-10s-4.477-10-10-10zm0 0"/></svg>