<svg height="512" viewBox="0 0 64 64" width="512" xmlns="http://www.w3.org/2000/svg"><path d="M61.89 60.677l-2.83-11.31a1 1 0 00-.26-.467L41.894 32l2.423-2.423a3.045 3.045 0 012.459-.923 13.009 13.009 0 0014.05-16.283 1 1 0 00-1.673-.448l-6.971 6.971-5.892-1.184-1.185-5.892 6.972-6.971a1 1 0 00-.448-1.673 13.009 13.009 0 00-16.282 14.051 3.047 3.047 0 01-.924 2.458L32 22.106 14.272 4.373a7 7 0 10-9.9 9.9L22.105 32l-2.422 2.422a3.029 3.029 0 01-2.459.923 13.009 13.009 0 00-14.05 16.284 1 1 0 001.673.448l6.971-6.971 5.892 1.184 1.19 5.892-6.972 6.971a1 1 0 00.448 1.673 13.009 13.009 0 0016.277-14.051 3.047 3.047 0 01.924-2.458L32 41.894 48.9 58.8a1 1 0 00.464.263l11.31 2.83a1.01 1.01 0 00.243.03 1 1 0 00.97-1.243zm-7.441-2.407l-3.843-.962v-3.653l2.34.468a1 1 0 001.177-1.177l-.469-2.34h3.654l.961 3.842a6.926 6.926 0 00-3.82 3.822zm-2.936-8.17l.354 1.768-1.767-.354-33.7-33.7 1.409-1.414zm-15.676-29a5.057 5.057 0 001.5-4.1A11.011 11.011 0 0149.314 4.782l-6 6a1 1 0 00-.273.905l1.421 7.069a1 1 0 00.783.784l7.069 1.419a1 1 0 00.905-.273l6-6a11.011 11.011 0 01-12.214 11.981 5.061 5.061 0 00-4.1 1.5l-2.425 2.419-2.837-2.837c.02-.017.045-.023.064-.042l4-4a1 1 0 00-1.414-1.414l-4 4c-.019.019-.025.044-.042.064l-2.837-2.837zm-15.2-7.533l35.035 35.039h-2.823L19.223 14.981zm-14.85-.709a5 5 0 117.071-7.071l2.121 2.121-7.071 7.071zm3.535 3.536l7.072-7.072 2.828 2.829-7.072 7.071zM28.163 42.9a5.057 5.057 0 00-1.5 4.1 11.011 11.011 0 01-11.977 12.218l6-6a1 1 0 00.274-.905l-1.42-7.07a1 1 0 00-.783-.784l-7.07-1.419a1 1 0 00-.9.273l-6 6A11.011 11.011 0 0117 37.333a5.047 5.047 0 004.1-1.5l2.423-2.423 2.836 2.837c-.019.017-.044.023-.063.042l-4 4a1 1 0 101.414 1.414l4-4c.019-.019.025-.044.042-.063l2.837 2.836zM13.564 20.64l1.417-1.417 33.625 33.626v2.823zm42.86 38.124a4.779 4.779 0 012.34-2.34l.781 3.121z"/></svg>