<svg xmlns="http://www.w3.org/2000/svg" xmlns:xlink="http://www.w3.org/1999/xlink" width="404" height="404"><defs><radialGradient id="a" cx=".782" cy=".52" r=".786" gradientTransform="rotate(-173.726 .782 .52)" gradientUnits="objectBoundingBox"><stop offset="0" stop-color="#843535"/><stop offset="1" stop-color="#4b1a1a"/></radialGradient><radialGradient id="g" cx=".5" cy=".499" r=".77" gradientTransform="matrix(-.517 0 0 -1 -31.33 16.646)" gradientUnits="objectBoundingBox"><stop offset="0" stop-color="#fff"/><stop offset=".544" stop-color="#fdfefe"/><stop offset=".74" stop-color="#f6f8f9"/><stop offset=".879" stop-color="#eaeff2"/><stop offset=".992" stop-color="#d9e3e8"/><stop offset="1" stop-color="#d8e2e7"/></radialGradient><radialGradient id="h" cx=".502" cy=".481" fx=".618" r=".638" gradientTransform="matrix(.771 .021 -.013 .792 -1.783 1.316)" gradientUnits="objectBoundingBox"><stop offset="0" stop-color="#ca9b8e"/><stop offset=".7" stop-color="#ca9b8e" stop-opacity=".302"/><stop offset="1" stop-color="#d9b8af" stop-opacity="0"/></radialGradient><radialGradient id="i" cx=".622" cy="1.912" r="1.993" gradientTransform="matrix(-.483 -.358 .158 -.793 -32.309 13.858)" gradientUnits="objectBoundingBox"><stop offset=".95" stop-opacity="0"/><stop offset="1" stop-opacity=".2"/></radialGradient><radialGradient id="j" cx=".5" cy=".499" r=".77" gradientTransform="matrix(.517 0 0 -1 -6.098 16.646)" xlink:href="#g"/><radialGradient id="k" cx=".498" cy=".481" fx=".613" r=".638" gradientTransform="matrix(-.771 .021 .013 .792 -30.304 1.551)" xlink:href="#h"/><radialGradient id="l" cx=".378" cy="1.912" r="1.993" gradientTransform="matrix(.483 -.358 -.157 -.793 -6.233 1.896)" xlink:href="#i"/><radialGradient id="m" cx=".5" cy=".5" r=".5" gradientTransform="matrix(1 0 0 -1 0 2.702)" gradientUnits="objectBoundingBox"><stop offset="0" stop-color="#e8d7d3" stop-opacity=".502"/><stop offset=".9" stop-color="#d9b8af" stop-opacity="0"/></radialGradient><radialGradient id="n" cx=".5" cy=".5" r=".493" gradientTransform="matrix(1 0 0 -1 0 4.994)" xlink:href="#m"/><linearGradient id="e" x1="-5.68" y1=".848" x2="-5.68" y2="1.18" gradientUnits="objectBoundingBox"><stop offset="0" stop-color="#ca9b8e" stop-opacity=".8"/><stop offset=".7" stop-color="#ab6957"/></linearGradient><linearGradient id="f" x1="-47.094" y1="11.04" x2="-47.094" y2="11.359" gradientUnits="objectBoundingBox"><stop offset=".1" stop-color="#d1a99e"/><stop offset="1" stop-color="#ca9b8e"/></linearGradient><clipPath id="d"><circle cx="163" cy="163" r="163" transform="translate(.491 .491)"/></clipPath><filter id="b" x="0" y="0" width="404" height="404" filterUnits="userSpaceOnUse"><feOffset/><feGaussianBlur stdDeviation="13" result="c"/><feFlood flood-opacity=".051"/><feComposite operator="in" in2="c"/><feComposite in="SourceGraphic"/></filter></defs><g transform="translate(.004 .004)" filter="url(#b)"><circle cx="163" cy="163" r="163" transform="translate(39 39)" fill="url(#a)"/></g><g transform="translate(38.509 38.509)" clip-path="url(#d)"><path d="M164.083 166.846h-1.184v-1.184h1.184z" fill="#1e1b1e"/><path d="M276.479 284.372c-2.6-5.6-9.708-13.931-17.6-16.26-9.748-2.842-31.769-6.275-39.939-8.209-6.551-1.539-19.733-13.379-24.35-17.325a5.114 5.114 0 01-1.539-3.276c-.158-12.866 4.973-47.042 4.973-47.042h-69.068s5.13 34.177 4.973 47.042a4.929 4.929 0 01-1.539 3.276c-4.617 3.986-17.8 15.825-24.35 17.325-8.169 1.894-30.191 5.486-39.939 8.327-7.893 2.289-15 10.5-17.6 16.141-4.381 9.472-5.446 26.639-5.446 41.438h236.791c.04-14.798-.99-31.965-5.367-41.437z" fill="#d9b8af"/><path d="M233.541 265.784c28.809 4.183 40.965 10.3 44.753 60.066h3.591c0-14.8-1.026-31.967-5.407-41.438-2.6-5.6-9.708-13.931-17.6-16.26-9.748-2.841-31.769-6.275-39.939-8.209-6.551-1.539-21.587-14.286-25.613-19.338 3.986 5.565 15.155 18.47 24.942 21.864 4.657 1.579 8.525 2.329 15.273 3.315zm-124.788-3.355c9.787-3.394 20.956-16.3 24.942-21.864-4.025 5.052-19.062 17.838-25.613 19.377-8.169 1.894-30.191 5.486-39.939 8.327-7.893 2.289-15 10.5-17.6 16.141-4.381 9.472-5.407 26.639-5.407 41.438h3.631c3.789-49.41 15.944-55.843 44.753-60.066 6.669-.984 10.536-1.734 15.233-3.352z" fill="#e8d7d3"/><path d="M158.321 281.847s-6-1.894-8.367-2.8c-12.352-4.738-52.567-7.82-52.567-7.82s42.346 1.7 51.66 3.276c-.553-5.644-3.591-23.679-3.591-23.679s6.078 19.89 7.577 24.942c.828 2.647 5.288 6.081 5.288 6.081zm12.787-1.618a2.552 2.552 0 00-.355.316.931.931 0 00.355-.318zm-12.787 1.618s3.433 3.552 5.13 3.591c2.25.079 5.722-3.433 7.3-4.854-1.5 1.144-4.933 1.658-6.275 1.7-1.577.036-6.155-.437-6.155-.437zm24.9-8.919c-1.815.276-5.209.947-5.209.947l2.723-17.641c-.75 3.631-5.288 19.18-9.629 23.995 2.25-1.894 7.3-2.841 9.866-3.2 12.116-1.776 12.116-1.736 48.621-5.841.002.003-34.412-.194-46.37 1.739z" fill="#ca9b8e"/><path d="M276.479 284.372c-2.6-5.6-9.708-13.931-17.6-16.26-9.748-2.842-31.769-6.275-39.939-8.209-6.551-1.539-19.733-13.379-24.35-17.325a5.114 5.114 0 01-1.539-3.276c-.158-12.866 4.973-47.042 4.973-47.042h-69.068s5.13 34.177 4.973 47.042a4.929 4.929 0 01-1.539 3.276c-4.617 3.986-17.8 15.825-24.35 17.325-8.169 1.894-30.191 5.486-39.939 8.327-7.893 2.289-15 10.5-17.6 16.141-4.381 9.472-5.446 26.639-5.446 41.438h236.791c.04-14.798-.99-31.965-5.367-41.437z" fill="none"/><path d="M367.088 562.586c16.733 0 22.5-5.683 28.691-10.932-.079-7.972 1.776-23.6 3.236-34.65-18.549-2.6-45.306-2.6-63.815 0 1.46 11.05 3.315 26.678 3.236 34.65 6.157 5.209 11.919 10.932 28.652 10.932z" transform="translate(-203.597 -312.429)" fill="url(#e)"/><path d="M95.73 326.995l1.579-72.063s12.076-2.96 19.693-7.459c20.719 26.008 82.245 20.522 92.743-.75 1.776.631 3.236 1.421 5.052 2.013a39.288 39.288 0 0010.892 5.328l1.105 73.05c-16.892.197-131.064-.119-131.064-.119z" fill="#f5f4f5"/><path d="M227.424 258.247c-5.012-.868-9-2.013-11.208-4.183-6.314 11.879-31.69 19.377-40.1 20.482 24.35-7.419 34.571-12.787 38.6-25.534 2.368 2.8 7.735 4.183 14.563 5.367zM107.45 254.3c1.736-.355 2.565-1.46 4.3-1.894l-1.815-2.21c-3.67 2.644-10.616 3.907-18.825 5.249l.237 4.42a69.568 69.568 0 0013.536-3.946c8.84 10.063 22.692 15 36.781 17.049-17.678-4.223-27.82-11.406-34.213-18.668z" fill="#fff"/><path d="M208.324 249.21c-7.025 13.458-60.066 29.125-89.98 1.026-1.855.71-7.419 2.486-7.419 2.486 21.785 27.31 85.639 27.507 102.649-.118a41.043 41.043 0 00-5.25-3.394z" fill="#dfdde2"/><path d="M209.666 246.565c-11.958 21.982-74.076 25.1-92.624.75-6.788 1.855-13.3 5.762-19.851 6.748l-1.461 72.932 131.063.118-1.026-73.879c-3.986-.829-7.7-3.236-10.971-4.617-1.776-.752-3.276-1.421-5.13-2.052zm-93.059 1.5c16.457 27.349 81.5 21.864 94.045.119 1.539.592 1.894.829 3.67 1.381-12.984 25.1-77.312 33.111-103.635 1.342.158-.042 4.065-2.211 5.92-2.842zm-7.222 3.907c21.272 32.006 91.48 27.073 106.043-1.539a23.412 23.412 0 009.393 4.42l1.973 69.932H96.125l2.25-69.024c3.275-1.579 8.563-2.803 11.01-3.789z" fill="#b8b6c9"/><path d="M39.729 326.758c-3.039-16.417-2.723-56.356 10.656-56.277 15.549-6.275 34.65-13.5 50.673-18.114 8.169-8.564 15.9-16.733 31.02-25.218.474 3.078 2.21 10.1 0 13.931-1.618 2.8-6.827 6.591-11.326 9.906-2.407 3.236-4.657 6.354-7.814 10.774 6.117 26.4 11.366 39.978 11.958 62.907 0 0-1.736.829 76.325.474 2.6-26.442 5.92-39.741 12.274-64.052 0 0-5.091-5.92-8.524-10.5-2.447-2.368-9.906-8.919-10.458-10.261-1.381-3.236-.631-7.34.118-13.458 12.787 5.762 20.127 14.247 30.862 25.218 9.156 2.526 36.545 11.8 50.239 18 4.7-.118 7.34 2.368 9.314 6.472 6.393 13.26 4.894 32.322 2.565 50.673-22.497.039-183.436 2.603-247.882-.475z" fill="#a44949"/><path d="M132.55 230.266c.2 1.263.355 2.486.474 3.591-.276.316-20.364 27.665-20.522 27.862 4.973-11.247 12.037-22.889 20.048-31.453zm61.8 0c-.2 1.263-.237 2.486-.355 3.591.276.316 20.048 26.6 20.206 26.8-5.246-10.461-11.837-21.827-19.848-30.391zm46.1 36.821c-5.052 7.38-6.157 9.906-11.682 17.246 1.263 0 3.315.2 4.578.2 4.339-7.461 4.339-11.25 7.102-17.446zm5.209 53.515c4.5-10.537 8.209-19.772 12.708-30.349l-1.46-2.368c-3.751 10.853-7.737 21.864-11.25 32.716zm-151.98-36.11c1.263 0 3.315-.2 4.578-.2-5.565-7.3-6.63-7.775-11.682-15.155 2.761 6.238 2.801 7.935 7.102 15.354zm-23.521 3.394l-1.46 2.368c4.5 10.537 5.643 19.811 10.143 30.349-3.554-10.854-4.936-21.865-8.685-32.718z" fill="#953333"/><path d="M122.803 248.262c1.381-1.934 6.2-8.6 10.182-14.878 1.184 6.472-.982 10.305-10.182 14.878zm71.155-15.273a145.846 145.846 0 0010.261 15.155c-9.945-4.539-10.616-9.155-10.261-15.155z" fill="#852121"/><path d="M194.669 227.072a1.711 1.711 0 01.039-.2c21.43 11.84 33.822 29.638 48.226 42.9-.513.868-1.46 1.421-2.013 2.25-15.076-11.526-22.258-28.89-46.252-44.95zm-64.644.789c-17.8 9.708-42.9 39.5-45.385 41.754.513.868.829.671 1.381 1.539 15.076-11.526 19.224-22.892 44.004-43.295zm145.784 42.227c-1.184-.947-29.165-11.879-50.436-17.72 39.9 19.3 53.988 21.943 60.934 28.809-.435-1.185-1.342-11.328-10.498-11.091zm-174.515-17.916a436.9 436.9 0 00-50.87 18.351c-6.354.118-10.892 9.393-11.879 19.062 8.8-19.972 4.46-6.554 62.749-37.413z" fill="#b36262"/><path d="M289.7 296.568c-.395-10.221-3.631-27.349-13.852-26.6-.829-.71-24.666-11.563-50.081-18.47-8.721-8.84-19.535-20.837-31.221-24.823-.829 7.617-1.736 12.589.237 15.036a47.039 47.039 0 008.959 7.735 130.206 130.206 0 009.629 11.563c-6.433 24.508-10.419 37.058-12.984 63.578h-73.835c-2.565-26.481-6.551-39.07-12.984-63.578a130.2 130.2 0 009.629-11.563 44.393 44.393 0 008.959-7.735c2.013-2.486 1.105-7.459.237-15.036-11.682 3.986-22.535 15.983-31.217 24.823-25.415 6.906-49.213 17.759-50.081 18.47-10.221-.75-13.458 16.378-13.852 26.6-.474 12.431 1.7 29.52 1.894 30.7h248.669c.198-1.181 2.368-18.308 1.894-30.7zm-158.175-55.493a62.406 62.406 0 01-7.656 6.235c5.722-7.419 5.13-6.433 9.116-13.3.161 2.965-.947 6.517-1.46 7.065zm-90.179 83.868c-1.263-15.194-3.433-28.888.513-43.806 1.5-5.722 2.96-9.59 8.84-10.064 1.263 6.551 9.629 34.019 16.93 52.725-7.38-28.652-6.275-22.258-9.748-33.7-1.145-3.828-2.21-7.7-3.512-11.445-.908-2.6-1.973-5.209-2.684-7.893l47.871-17.6c-.316.316-15.273 15.9-15.628 16.339 2.171 3.591 9.235 8.564 12.826 13.931-14.72 1.381-21.9 3.749-27.231 4.539.395 1.1 10.734 30.033 11.8 32.756-1.736-9.393-5.683-24.034-10.221-32.2 1.658-.2 21.39-2.96 27.7-4.1-1.736-3.394-9.511-9.985-13.694-14.957 24.429-21.508 30.112-32.44 46.884-41.991.2 1.776.513 3.552.671 5.367-18.706 27.862-20.877 27.9-20.877 27.9 5.446 21.074 12.471 42.425 12.471 64.012zm154.112-83.868c-.513-.513-1.658-4.1-1.46-7.025 3.986 6.867 3.394 5.88 9.116 13.3a66.455 66.455 0 01-7.656-6.275zm90.178 83.863l-82.877-.2c0-21.587 7.025-42.938 12.471-64.012 0 0-2.21-.039-20.877-27.9.118-1.776.474-3.552.671-5.367 16.773 9.551 22.416 20.482 46.884 41.991-4.144 4.933-11.918 11.563-13.694 14.957 6.275 1.184 26.007 3.907 27.7 4.1-4.538 8.169-8.485 22.85-10.221 32.2 1.066-2.723 11.405-31.651 11.8-32.756-5.328-.789-12.51-3.157-27.231-4.539 3.591-5.367 10.656-10.34 12.826-13.931-.355-.434-15.312-16.023-15.628-16.339l47.871 17.6c-.71 2.684-1.736 5.249-2.684 7.893-1.342 3.789-2.368 7.617-3.512 11.445-3.433 11.406-2.368 5.052-9.748 33.7 7.3-18.706 15.668-46.174 16.931-52.725 5.88.474 7.3 4.341 8.84 10.064 3.951 14.896 1.78 28.59.478 43.824z" fill="#761111"/><path d="M101.018 144.351c-1.144-2.96-9.551-7.1-13.26-6.433-4.183.75-5.722 5.17-5.17 8.446 1.3 7.7 4.736 10.932 6.275 16.93 1.3 5.052 4.065 7.972 5.446 10.1 1.7 2.644 3.236 8.682 3.591 9.59.553 1.381 2.486 4.775 5.92 4.617 3.947-.2 8.919-7.932 9-9.629.393-9.35-8.842-25.965-11.802-33.621z" fill="#d9b8af"/><path d="M101.887 175.686a3.061 3.061 0 00-.118-2.407c-.789-1.46-2.881-4.1-3.355-5.683-.395-1.3-.2-4.065-.237-5.446-.118-2.407-1.776-4.065-2.289-5.446-3.433-9.235-8.051-14.957-10.656-16.141-1.934 4.736-.395 8.169 2.289 15.431-1.618-9.866-.079-12.945-.079-12.945s4.775 4.1 7.1 13.221c.434 1.658-1.3 5.091-.987 6.749.434 2.092 4.973 6.157 6.235 7.854a23.55 23.55 0 012.097 4.813z" fill="#ab6957"/><path d="M225.689 144.351c1.145-2.96 9.551-7.1 13.26-6.433 4.183.75 5.722 5.17 5.17 8.446-1.3 7.7-4.736 10.932-6.275 16.93-1.3 5.052-4.065 7.972-5.446 10.1-1.7 2.644-3.236 8.682-3.591 9.59-.552 1.381-2.486 4.775-5.92 4.617-3.947-.2-8.919-7.932-9-9.629-.432-9.35 8.803-25.965 11.802-33.621z" fill="#d9b8af"/><path d="M224.822 175.686a3.061 3.061 0 01.118-2.407c.789-1.46 2.881-4.1 3.354-5.683.395-1.3.2-4.065.237-5.446.118-2.407 1.776-4.065 2.289-5.446 3.434-9.235 8.051-14.957 10.656-16.141 1.934 4.736.395 8.169-2.289 15.431 1.618-9.866.079-12.945.079-12.945s-4.775 4.1-7.1 13.221c-.434 1.658 1.3 5.091.987 6.749-.434 2.092-4.973 6.157-6.235 7.854a21.441 21.441 0 00-2.096 4.813z" fill="#ab6957"/><path d="M163.491 48.885c-39.82.079-72.142 32.953-72.063 73.484a74.366 74.366 0 002.368 18.628c0 .079 13.655 45.977 16.615 61.052 1.618 8.406 11.6 15.983 20.443 22.179 8.248 5.762 12.471 14.089 32.638 14.089s24.389-8.288 32.638-14.089c8.84-6.2 18.785-13.773 20.443-22.179 2.92-15.076 16.575-61.013 16.615-61.052a74.365 74.365 0 002.368-18.628c.077-40.531-32.245-73.405-72.065-73.484z" fill="#d9b8af"/><path d="M218.861 75.366a76.893 76.893 0 0111.8 62.986c0 .079-13.181 45.977-15.983 61.052-1.579 8.406-11.208 15.983-19.733 22.179-7.972 5.762-12 14.089-31.454 14.089s-23.482-8.288-31.454-14.089c-8.525-6.2-18.154-13.773-19.733-22.179-2.841-15.076-15.983-61.013-15.983-61.052a76.21 76.21 0 01-2.293-18.627 75.251 75.251 0 0114.089-44.319 74.5 74.5 0 00-14.326 65.63c0 .079 13.655 45.977 16.615 61.052 1.618 8.406 11.6 15.983 20.443 22.179 8.248 5.762 12.471 14.089 32.638 14.089s24.394-8.29 32.641-14.09c8.84-6.2 18.785-13.773 20.443-22.179 2.92-15.076 16.575-61.013 16.615-61.052a74.367 74.367 0 002.368-18.628 73.613 73.613 0 00-16.693-47.041z" fill="#d1a99e"/><path d="M163.491 48.885c-39.82.079-72.142 32.953-72.063 73.484a74.366 74.366 0 002.368 18.628c0 .079 13.655 45.977 16.615 61.052 1.618 8.406 11.6 15.983 20.443 22.179 8.248 5.762 12.471 14.089 32.638 14.089s24.389-8.288 32.638-14.089c8.84-6.2 18.785-13.773 20.443-22.179 2.92-15.076 16.575-61.013 16.615-61.052a74.365 74.365 0 002.368-18.628c.077-40.531-32.245-73.405-72.065-73.484z" fill="none"/><path d="M410 546.01c-3.355.158-4.3-3.276-4.3-3.276a22.556 22.556 0 008.288-.434c-.04.04-1.026 3.591-3.988 3.71z" transform="translate(-246.274 -328.924)" fill="url(#f)"/><path d="M164.083 214.52a28.038 28.038 0 01-4.578-.118.3.3 0 11.039-.592c.039 0 4.854.474 7.972-.395a.288.288 0 11.158.553 17.507 17.507 0 01-3.591.552z" fill="#ab6957"/><path d="M142.772 202.128s14.839 1.776 19.811 1.776c5.407 0 22.811-1.776 22.811-1.776-5.052 4.183-10.577 8.209-23.166 8.288-11.208.079-14.089-4.026-19.456-8.288z" fill="#fff"/><path d="M142.772 202.128s14.839 1.776 19.811 1.776c5.407 0 22.811-1.776 22.811-1.776-5.052 4.183-10.577 8.209-23.166 8.288-11.208.079-14.089-4.026-19.456-8.288z" fill="none"/><path d="M299.487 371.56c2.881 2.763 8.011 3.078 15.391 3.078s11.682-1.618 13.458-4.736c2.131-3.789-4.578-11.6-15.273-11.6-6.863-.042-21.663 5.483-13.576 13.258z" transform="translate(-180.552 -217.54)" fill="url(#g)"/><path d="M140.404 149.083a7.1 7.1 0 11-7.1-7.1 7.125 7.125 0 017.1 7.1z" fill="#201912"/><path d="M129.157 152.402c1.026-.079.118-.355.118-.355-.513-.276-1.46-.71-1.46-1.105 0-1.223 1.658-1.539-.039-2.013-1.776-1.618 1.381-1.618 1.342-1.658-1.144-2.8.355-1.263.987-2.092 2.368-3.078.671.316 1.934 0 .474-.118-.908-1.815.039-1.579a1.094 1.094 0 01.789.671 3.284 3.284 0 001.184-.789c.868.276 1.5 1.539 1.223 1.3a12.631 12.631 0 001.539-.395s.079-.276.158-.039c1.1 3.157 3.907 2.92.671 3.828 0 0-.2 0 .434.513 3.2 2.565-2.486 1.776.552 2.96.118-.118-1.815 1.144-1.815 1.5 0 .592-1.223 2.171-2.289 1.539-.592-.355-.671.71-1.026.237-.671-.947-2.052-.039-1.539-.908.75-.631-.789.237-1.066.237-.987 0 1.263-3.276 4.617-.829.987.71-1.026-1.7.75-1.7.158.039.118-.631.118-.789-.908-.2 1.658 0 1.658-1.5.158.039.592-.395-1.934 0a8.271 8.271 0 01-.039-1.065c.118-.513 1.421-.355 1.066-.908l-.947-1.894c-3.039-.474-1.3-.789-3.2-.395-.079.434-4.065 2.368-3.946 3.236.118.829 2.486 1.1.237 2.565 3.318 6.439-2.565-.151-.116 1.427z" fill="#2f271f"/><path d="M133.305 142.851l.2 5.209 2.171-4.736-1.815 4.894 3.828-3.552-3.552 3.828 4.894-1.815-4.736 2.171 5.209.2-5.209.2 4.736 2.171-4.894-1.815 3.552 3.828-3.828-3.552 1.815 4.894-2.171-4.736-.2 5.209-.2-5.209-2.171 4.736 1.815-4.894-3.828 3.552 3.552-3.828-4.894 1.815 4.736-2.171-5.209-.2 5.209-.2-4.736-2.171 4.894 1.815-3.552-3.828 3.828 3.552-1.815-4.894 2.171 4.736z" fill="#010100"/><path d="M134.247 144.43l-.631 3.907 2.328-3.2-2.092 3.394 3.394-2.052-3.236 2.328 3.946-.592-3.868.908 3.868.947-3.946-.631 3.2 2.328-3.394-2.092 2.052 3.394-2.328-3.236.592 3.946-.908-3.867-.947 3.867.631-3.907-2.368 3.2 2.085-3.393-3.39 2.051 3.236-2.328-3.946.592 3.868-.908-3.868-.947 3.907.631-3.2-2.328 3.393 2.088-2.052-3.394 2.328 3.236-.592-3.947.908 3.868z"/><path d="M135.984 149.087a2.684 2.684 0 11-2.684-2.684 2.686 2.686 0 012.684 2.684z" opacity=".9"/><path d="M130.499 154.178c-.395.395-1.184.237-1.736-.316s-.71-1.342-.316-1.736 1.184-.237 1.736.316c.592.591.711 1.341.316 1.736z" fill="#fff" opacity=".7"/><path d="M138.983 147.666c-.592.592-2.013.118-3.157-1.066-1.184-1.184-1.618-2.6-1.066-3.157.592-.592 2.013-.118 3.157 1.066 1.185 1.184 1.658 2.604 1.066 3.157z" fill="#fff" opacity=".9"/><path d="M109.977 142.575c0 16.339 10.064 35.519 22.5 35.519s22.5-13.26 22.5-29.6-10.064-29.6-22.5-29.6-22.5 7.343-22.5 23.681zm8.959 11.445c-8.13-7.775 6.67-13.3 13.536-13.3 10.7 0 17.444 7.814 15.273 11.6-1.776 3.157-6.078 4.736-13.458 4.736-7.34.04-12.47-.274-15.351-3.036z" fill="#d9b8af"/><path d="M292.1 351.862c-.079 8.84 10.221 15.944 21.351 15.9s20.127-7.222 20.088-16.062-9.038-15.944-20.167-15.9c-11.13.079-21.154 3.986-21.272 16.062zm17.917-6.985c10.7 0 17.444 7.735 15.273 11.484-1.776 3.118-6.078 4.7-13.458 4.7s-12.51-.316-15.391-3.039c-8.091-7.699 6.709-13.145 13.575-13.145z" transform="translate(-177.505 -203.92)" fill="url(#h)"/><path d="M299.487 371.56c2.881 2.763 8.011 3.078 15.391 3.078s11.682-1.618 13.458-4.736c2.131-3.789-4.578-11.6-15.273-11.6-6.863-.042-21.663 5.483-13.576 13.258z" transform="translate(-180.552 -217.54)" fill="url(#i)"/><path d="M150.705 145.929c.395-.395-5.6-8.919-15.826-9.274-10.813-.395-19.89 7.143-19.89 7.143s9.827-7.1 19.614-6.591c11.366.593 15.747 9.038 16.102 8.722z" fill="#ab6957"/><path d="M147.469 153.073l.395-2.723c-3.946-10.3-18.391-13.181-30.467-2.486a1.96 1.96 0 00-.553 2.171l3.2 5.328a42.312 42.312 0 01-5.841-6.906l-1.145-.592c15.273-14.642 32.085-11.208 37.571 1.815l-1.342-.2zm-4.614 2.92a73.29 73.29 0 01-15.707.908 31.8 31.8 0 0015.707-.908z" fill="#131111"/><path d="M482.844 371.56c-2.881 2.763-8.011 3.078-15.391 3.078S455.771 373.02 454 369.9c-2.131-3.789 4.578-11.6 15.273-11.6 6.862-.04 21.662 5.485 13.571 13.26z" transform="translate(-275.27 -217.54)" fill="url(#j)"/><path d="M200.786 149.083a7.1 7.1 0 11-7.1-7.1 7.125 7.125 0 017.1 7.1z" fill="#201912"/><path d="M189.539 152.402c1.026-.079.118-.355.118-.355-.513-.276-1.5-.71-1.5-1.105 0-1.223 1.7-1.539-.039-2.013-1.776-1.618 1.381-1.579 1.342-1.658-1.144-2.8.355-1.263.987-2.092 2.328-3.078.671.316 1.934 0 .474-.118-.947-1.815.039-1.579a1.094 1.094 0 01.789.671 3.285 3.285 0 001.184-.789c.908.276 1.5 1.539 1.223 1.3a12.634 12.634 0 001.539-.395s.079-.276.158-.039c1.066 3.157 3.868 2.92.671 3.828 0 0-.2 0 .434.513 3.2 2.565-2.486 1.776.552 2.96.118-.118-1.815 1.144-1.815 1.5 0 .592-1.223 2.131-2.289 1.539-.592-.355-.71.71-1.026.237-.671-.947-2.052-.039-1.539-.908.75-.631-.789.237-1.066.237-.987 0 1.263-3.276 4.617-.829.987.71-1.026-1.7.75-1.7.158.039.118-.631.118-.789-.947-.2 1.618 0 1.618-1.5.158.039.592-.395-1.934 0a8.271 8.271 0 01-.039-1.065c.118-.513 1.421-.355 1.066-.908l-.947-1.894c-3.039-.474-1.3-.789-3.236-.395-.079.434-4.065 2.368-3.947 3.236.118.829 2.526 1.1.237 2.565 3.434 6.479-2.446-.192.001 1.427z" fill="#2f271f"/><path d="M193.687 142.851l.2 5.209 2.171-4.736-1.815 4.894 3.828-3.552-3.552 3.828 4.894-1.815-4.736 2.171 5.209.2-5.209.2 4.736 2.171-4.894-1.815 3.552 3.828-3.828-3.552 1.815 4.894-2.171-4.736-.2 5.209-.2-5.209-2.171 4.736 1.815-4.894-3.828 3.552 3.552-3.828-4.894 1.815 4.736-2.171-5.209-.2 5.209-.2-4.736-2.171 4.894 1.815-3.552-3.828 3.828 3.552-1.815-4.894 2.171 4.736z" fill="#010100"/><path d="M194.63 144.43l-.631 3.907 2.328-3.2-2.092 3.394 3.394-2.092-3.236 2.328 3.907-.592-3.868.908 3.868.947-3.907-.631 3.2 2.328-3.394-2.092 2.052 3.394-2.328-3.236.592 3.907-.908-3.868-.947 3.868.631-3.907-2.328 3.2 2.092-3.394-3.394 2.092 3.236-2.328-3.907.592 3.868-.908-3.868-.947 3.907.631-3.2-2.328 3.394 2.092-2.052-3.394 2.328 3.236-.592-3.907.908 3.868z"/><path d="M196.366 149.087a2.684 2.684 0 11-2.684-2.684 2.686 2.686 0 012.684 2.684z" opacity=".9"/><path d="M190.881 154.178a1.263 1.263 0 01-1.736-.316c-.552-.552-.71-1.342-.316-1.736s1.184-.237 1.736.316c.592.591.711 1.341.316 1.736z" fill="#fff" opacity=".7"/><path d="M199.366 147.666c-.592.592-2.013.118-3.2-1.066s-1.618-2.6-1.026-3.157c.592-.592 2.013-.118 3.157 1.066 1.188 1.184 1.661 2.604 1.069 3.157z" fill="#fff" opacity=".9"/><path d="M194.043 118.896c-12.432 0-22.5 13.26-22.5 29.6s10.064 29.6 22.5 29.6 22.5-18.351 22.5-34.729-10.073-24.471-22.5-24.471zm-1.9 38.2c-7.38 0-11.682-1.618-13.458-4.736-2.131-3.789 4.578-11.6 15.273-11.6 6.867 0 21.666 5.525 13.537 13.3-2.801 2.722-7.932 3.036-15.352 3.036z" fill="#d9b8af"/><path d="M453.866 335.8c-11.129-.039-20.167 7.064-20.167 15.9-.039 8.84 8.959 16.023 20.088 16.062s21.43-7.064 21.351-15.9c-.118-12.076-10.138-15.983-21.272-16.062zm16.934 22.258c-2.881 2.723-8.011 3.039-15.391 3.039s-11.682-1.579-13.458-4.7c-2.131-3.749 4.578-11.484 15.273-11.484 6.864-.036 21.663 5.41 13.576 13.145z" transform="translate(-263.223 -203.92)" fill="url(#k)"/><path d="M482.844 371.56c-2.881 2.763-8.011 3.078-15.391 3.078S455.771 373.02 454 369.9c-2.131-3.789 4.578-11.6 15.273-11.6 6.862-.04 21.662 5.485 13.571 13.26z" transform="translate(-275.27 -217.54)" fill="url(#l)"/><path d="M175.805 145.929c-.395-.395 5.6-8.919 15.826-9.274 10.813-.395 19.89 7.143 19.89 7.143s-9.827-7.1-19.614-6.591c-11.366.593-15.747 9.038-16.102 8.722z" fill="#ab6957"/><path d="M177.147 149.481l-1.342.2c5.486-13.024 22.3-16.457 37.571-1.815l-1.144.592a41.957 41.957 0 01-5.841 6.906l3.2-5.328a1.96 1.96 0 00-.553-2.171c-12.076-10.7-26.52-7.814-30.467 2.486l.395 2.723zm22.219 7.419a70.822 70.822 0 01-15.707-.908 31.8 31.8 0 0015.707.909z" fill="#131111"/><path d="M390.084 390.4a48.542 48.542 0 11-48.621-48.5 48.524 48.524 0 0148.621 48.5z" transform="translate(-178.05 -207.613)" fill="url(#m)"/><path d="M392.3 216.8a44.4 44.4 0 11-44.4-44.4 44.414 44.414 0 0144.4 44.4z" transform="translate(-184.406 -105.006)" fill="url(#n)"/><path d="M107.254 135.314c8.84-11.09 24.074-9.274 36.545-7.459 3.157.474 6.433.789 9.551 1.579 2.25.553 3.986 3.118 2.21 5.17-.829.987-2.684.789-3.789.789-14.958-.355-31.849-8.919-44.517-.079zm112.554-.435a21.448 21.448 0 00-8.327-3.433c-11.248-1.815-32.677 5.683-38.281 4.1-3.433-.987-2.763-4.42-1.223-5.288.908-.513 1.184-.513 9.353-1.894 13.931-2.404 29.52-4.298 38.478 6.515z" fill="#211b22"/><path d="M163.452 191.078c-3.078-.079-8.564-3.276-7.893-6.117.592-2.644 4.065.947 8.011.987s8.682-2.328 9.235.316c.908 4.341-4.381 4.972-9.353 4.814z" fill="#d1a99e"/><path d="M170.358 189.499a.592.592 0 00.947 0 1.008 1.008 0 00.039-1.184c-1.855-2.407-5.209.829-4.933 1.144.08.119 2.527-1.775 3.947.04zm-13.852-6.117c.395 2.526 1.184 5.92 7.7 7.735-6.433-.2-10.577-1.381-10.537-7.341 0-3 3.157-9.235 3.157-9.235s-.715 6.158-.32 8.841z" fill="#ab6957"/><path d="M98.334 160.216c-2.881-10.419-4.42-19.575-6.551-29.125l.079-.039c-.829-2.013-3.749-17.838-3.789-18-3-21.035 5.92-22.258 5.722-31.02 3.749 1.894 7.38.947 10.7-1.618-3.473-1.776-2.368-2.052-6.946-4.854 3.236-.553 5.13.2 7.854.553-2.328-2.328-6.946-7.143-9.945-6.512l-.2-.434c4.341-3.394 10.1 3.67 15.352 1.736.158-19.377 28.494-23.4 35.4-26.284 9.2-3.512 18.785-11.169 25.534-11.879a23.585 23.585 0 00-6.314 14.642c5.565-5.328 5.959-5.17 14.4-14.523 0 7.538-2.092 8.485-4.815 12.905 7.341-4.815 16.536-18.351 30.625-20.4l.158.434c-5.091 3-9.037 8.051-11.721 15.036 2.684-3.236 6.472-6.709 10.656-7.38l.158.434c-2.6 1.579-7.775 6.788-8.919 15.549a48.5 48.5 0 0119.1-12.392l.237.395c-5.209 4.223-7.3 11.642-8.445 17.917 3.631-5.407 5.762-6.67 10.34-8.919a24.1 24.1 0 00-2.564 4.226c2.841 7.262 12.195 7.538 13.813 20.206a44.493 44.493 0 014.933-3.67l.316.316c-1.658 2.6-3.039 7.183-3.946 10.261 3.276-2.526 8.367-4.381 11.958-5.644l.237.395c-3.039 3.078-6.67 7.735-7.3 12.826a24.146 24.146 0 002.763-1.736c0 3.631.118 3.2.158 4.854a29.318 29.318 0 002.684-2.565c-.2 38.321-2.171 30.664-7.5 57.382-.947 4.7-2.565 12.866-3.631 16.812l-7.143 1.223c2.21-26.521-.118-20.719 1.5-37.413 2.368-24.587-17.522-44.753-43.846-38.163-5.328 1.342-26.56 1.342-31.888 0-29.046-7.3-39.544 9.669-42.662 39.386-1.539 14.6-1.894 9.669.316 36.189z" fill="#1e1b1e"/><path d="M237.331 88.543c-.039-1.7-.158-1.223-.158-4.854a24.149 24.149 0 01-2.763 1.736c.592-5.091 4.262-9.748 7.3-12.826l-.237-.395c-3.591 1.3-8.643 3.157-11.958 5.643.908-3.078 2.289-7.656 3.947-10.261l-.316-.316a43.268 43.268 0 00-4.933 3.67c-1.618-12.668-10.971-12.945-13.813-20.206a21.926 21.926 0 012.565-4.223c-4.578 2.289-6.709 3.512-10.34 8.919 1.184-6.314 3.276-13.694 8.446-17.917l-.237-.395a48.658 48.658 0 00-19.1 12.392c1.184-8.761 6.314-13.971 8.919-15.549l-.158-.434c-4.183.631-7.972 4.144-10.656 7.38 2.684-6.985 6.63-12.037 11.721-15.036l-.158-.434c-14.128 2.052-23.284 15.589-30.625 20.4 2.723-4.42 4.815-5.367 4.815-12.905-8.446 9.353-8.84 9.2-14.4 14.523a23.9 23.9 0 016.314-14.642c-6.749.671-16.339 8.367-25.534 11.879-6.906 2.881-35.242 6.906-35.4 26.284-5.209 1.894-11.011-5.13-15.352-1.736l.2.434c3-.631 7.617 4.144 9.945 6.512-2.763-.355-4.617-1.105-7.854-.553 4.578 2.8 3.512 3.078 6.946 4.854-3.276 2.565-6.946 3.512-10.7 1.618.2 8.761-8.722 9.985-5.722 31.02.039.158 2.96 15.983 3.789 18l-.079.039c2.131 9.551 3.71 18.667 6.551 29.125h.039c-.789-19.456-13.063-47.121-5.841-64.881.947-2.328 4.578-8.406 4.578-8.406s11.405-1.5 11.918-5.92a17.032 17.032 0 01-3.552-2.368c2.368 1.184 2.368-2.368 4.736-1.184 0-2.368-3.552-1.184-3.552-3.552 2.368 0 4.736 0 7.1 2.368-1.184-5.92 0-11.84 4.736-15.391 11.84-9.472 27.231-8.288 39.07-17.759-1.184 5.92-2.368 11.84-2.368 17.759 7.1-3.552 9.472-10.656 15.391-15.391 1.184 4.736-1.184 10.656-1.184 15.391 3.552-8.288 8.288-16.575 18.943-18.943-4.736 4.736-4.736 11.84-4.736 17.759 0-4.736 4.736-7.1 5.92-10.656v14.207c2.368-7.1 7.1-10.656 13.023-13.023-4.736 4.736-3.552 9.472-4.736 15.391 3.552-3.552 8.288-4.736 11.84-8.288 3.552 7.1 1.184 13.023 1.184 20.127 1.184-5.92 7.1-9.472 10.656-14.207a44.842 44.842 0 010 17.759c1.184-3.552 3.552-5.92 4.736-9.472a49.822 49.822 0 01-2.328 15.549c1.5-1.736 3.907-2.486 4.7-4.894v14.247c.671-1.421 2.723-1.894 3.552-3.591-1.026 4.025-.316 7.222-.079 11.011.434-2.328 2.684-3.749 3.473-5.88.039-.908.079-1.855.158-2.763a4.3 4.3 0 01-.158 2.763c-1.066 21.035-3.078 42.03-7.419 62.315l.75-.118c1.066-3.947 2.684-12.116 3.631-16.812 5.288-26.718 7.262-19.062 7.5-57.382-.91.954-1.147 1.152-2.646 2.489z" fill="#2d2d2d"/><path d="M243.723 71.183a31.759 31.759 0 00-13.1 5.052c.474-1.184 2.6-7.893 4.894-10.734a32.021 32.021 0 00-6.788 4.144 11.548 11.548 0 00-.71-3.355 13.43 13.43 0 00-1.5-3.118c-6.117-8.643-6.512-5.012-11.524-11.642a20.223 20.223 0 013.907-5.959c-4.617.671-7.064 2.447-9.985 5.328a.543.543 0 00-.118.158c1.855-7.262 5.446-13.537 12.51-15.9-8.761-.316-19.575 6.157-25.021 12.589 2.368-7.538 5.486-11.169 10.182-14.523a11.926 11.926 0 00-9.274 3.039 30.97 30.97 0 0111.09-11.287c-.513 0-1.105-.039-1.776 0-.908-.237-6.472.671-8.485 1.539-9.866 3.868-17.049 12.826-20.127 15.707 2.25-3.67 2.368-6.275 1.973-10.1-.789.671-13.734 13.1-13.931 13.26.908-5.091 2.644-8.209 5.959-12.787-5.841-1.105-20.522 8.564-29.6 11.129-9.511 2.565-33.151 7.972-32.085 26.876-5.091.987-12.55-7.183-16.417-.355 3.118-1.855 7.3 2.6 10.182 5.17-1.184-.2-5.13-1.105-7.064.158 2.25.868 4.223 3.473 6.985 4.854.039 0 .079.039.118.039-2.526 1.342-5.525 2.407-8.288 1.658-.434-.118-.671-.2-.671-.2-.316-.158-.671-.276-1.026-.434l-.474-.237c.829 6.63-9.274 12.037-8.13 26.086.474 8.643 5.841 34.927 12.668 52.765l.553.158c-2.841-10.221-4.46-19.811-6.591-29.244-.2 0-3.631-17.8-3.67-18-2.96-20.877 5.92-22.377 5.722-30.585 3.71 1.855 7.735.513 10.853-2.052-3.71-1.855-2.92-2.368-6.709-4.7 2.565-.434 5.683.553 7.854.71-2.763-2.763-7.459-7.7-10.616-7.025 4.223-3.315 10.064 3.868 15.431 1.736 0-19.377 28.1-23.245 35.242-26.244 8.6-3.276 19.259-11.208 24.784-11.761a24.1 24.1 0 00-5.959 14.878c5.722-5.486 6.275-5.446 14.4-14.484 0 7.1-2.644 8.406-5.249 12.984 7.577-4.381 16.773-18.746 31.375-20.877-6.117 3.591-9.985 9.866-12.313 16.536 2.8-3.631 6.867-7.735 11.405-8.406-2.368 1.421-8.13 6.827-9.156 16.5 5.13-6.038 13.734-11.05 19.5-12.905-5.446 4.42-7.538 12.274-8.761 19.219 2.013-3.039 3.986-5.8 7.064-7.735l.039-.039a17.768 17.768 0 013-1.658 18.309 18.309 0 00-2.131 3.591c2.881 7.538 12.471 7.577 13.892 20.68a45.6 45.6 0 015.249-3.947c-1.815 2.841-3.315 8.011-4.223 11.05 3.433-2.96 9.787-5.13 12.471-6.078-3.552 3.591-6.985 8.406-7.419 13.458.71-.474 1.658-.868 2.842-1.736 0 3.236.158 2.8.158 4.933.631-.553 2.052-1.776 2.684-2.486-.237 37.531-2.21 30.27-7.459 56.711-1.973 9.906-3 14.523-3.631 16.891l.513-.118c4.262-12.747 12.708-41.478 12.313-56.356-.039-5.565-1.263-17.167-1.3-18.351-.039.039-2.486 2.328-2.486 2.328 0-.592-.237-3.2-.237-4.578-.434.316-1.3.908-2.486 1.618 1.575-4.933 4.061-7.971 8.678-13.536z"/></g></svg>