<svg xmlns="http://www.w3.org/2000/svg" xmlns:xlink="http://www.w3.org/1999/xlink" width="1496" height="409" viewBox="0 0 1496 409"><defs><linearGradient id="a" x1="0.007" y1="0.025" x2="0.993" y2="0.971" gradientUnits="objectBoundingBox"><stop offset="0" stop-color="#6788ff"/><stop offset="1" stop-color="#9b64fd"/></linearGradient><filter id="b" x="0" y="0" width="1496" height="409" filterUnits="userSpaceOnUse"><feOffset dy="3" input="SourceAlpha"/><feGaussianBlur stdDeviation="8.5" result="c"/><feFlood flood-color="#8474fe" flood-opacity="0.639"/><feComposite operator="in" in2="c"/><feComposite in="SourceGraphic"/></filter><linearGradient id="d" x1="0.473" y1="0.163" x2="0.959" y2="0.968" gradientUnits="objectBoundingBox"><stop offset="0" stop-color="#8f6dfe"/><stop offset="1" stop-color="#2e3158"/></linearGradient><linearGradient id="e" x1="0.5" x2="0.5" y2="1" gradientUnits="objectBoundingBox"><stop offset="0" stop-color="#7c92e6"/><stop offset="1" stop-color="#6e84ff"/></linearGradient><linearGradient id="f" x1="0.5" x2="0.5" y2="1" gradientUnits="objectBoundingBox"><stop offset="0" stop-color="#7c92e6"/><stop offset="1" stop-color="#7d90ff"/></linearGradient></defs><g transform="translate(-211.5 -1511.5)"><g transform="matrix(1, 0, 0, 1, 211.5, 1511.5)" filter="url(#b)"><rect width="1445" height="358" rx="30" transform="translate(25.5 22.5)" fill="url(#a)"/></g><path d="M1254.156,1892s-59.062-28.141,20.307-117.555,183.652-216.2,285.537-230.385,122,173.663,122,173.663v149.854s-3.313,12.4-11.539,18.51S1649.1,1892,1649.1,1892Z" opacity="0.54" fill="url(#d)"/><rect width="104" height="379" rx="52" transform="matrix(0.848, -0.53, 0.53, 0.848, 221.865, 1590.412)" fill="url(#e)"/><rect width="104" height="379" rx="52" transform="matrix(0.848, -0.53, 0.53, 0.848, 281.865, 1590.412)" fill="url(#f)"/></g></svg>