<svg preserveAspectRatio="none"  xmlns="http://www.w3.org/2000/svg" xmlns:xlink="http://www.w3.org/1999/xlink" width="440" height="841" viewBox="0 0 440 841">
  <defs>
    <linearGradient id="linear-gradient" x1="0.019" y1="0.011" x2="0.983" y2="0.983" gradientUnits="objectBoundingBox">
      <stop offset="0" stop-color="#dbd279"/>
      <stop offset="1" stop-color="#f1a564"/>
    </linearGradient>
    <linearGradient id="linear-gradient-2" x1="0.5" x2="0.5" y2="1" gradientUnits="objectBoundingBox">
      <stop offset="0" stop-color="#dfca75"/>
      <stop offset="1" stop-color="#eab46b"/>
    </linearGradient>
  </defs>
  <g id="card-yellow" transform="translate(-740 -6069)">
    <rect id="Rectangle_19" data-name="Rectangle 19" width="440" height="841" rx="39" transform="translate(740 6069)" fill="url(#linear-gradient)"/>
    <circle id="Ellipse_9" data-name="Ellipse 9" cx="19.5" cy="19.5" r="19.5" transform="translate(790 6125)" fill="#e1d57e" opacity="0.46"/>
    <circle id="Ellipse_9-2" data-name="Ellipse 9" cx="19.5" cy="19.5" r="19.5" transform="translate(849 6125)" fill="#e1d57e" opacity="0.46"/>
    <circle id="Ellipse_9-3" data-name="Ellipse 9" cx="19.5" cy="19.5" r="19.5" transform="translate(908 6125)" fill="#e1d57e" opacity="0.46"/>
    <circle id="Ellipse_9-4" data-name="Ellipse 9" cx="19.5" cy="19.5" r="19.5" transform="translate(790 6184)" fill="#e2d780" opacity="0.46"/>
    <circle id="Ellipse_9-5" data-name="Ellipse 9" cx="19.5" cy="19.5" r="19.5" transform="translate(849 6184)" fill="#e2d780" opacity="0.46"/>
    <circle id="Ellipse_9-6" data-name="Ellipse 9" cx="19.5" cy="19.5" r="19.5" transform="translate(908 6184)" fill="#e2d780" opacity="0.46"/>
    <circle id="Ellipse_9-7" data-name="Ellipse 9" cx="19.5" cy="19.5" r="19.5" transform="translate(790 6243)" fill="#e6db84" opacity="0.46"/>
    <circle id="Ellipse_9-8" data-name="Ellipse 9" cx="19.5" cy="19.5" r="19.5" transform="translate(849 6243)" fill="#e6db84" opacity="0.46"/>
    <circle id="Ellipse_9-9" data-name="Ellipse 9" cx="19.5" cy="19.5" r="19.5" transform="translate(908 6243)" fill="#e6db84" opacity="0.46"/>
    <path id="Rectangle_22" data-name="Rectangle 22" d="M52,0h0a52,52,0,0,1,52,52V210a0,0,0,0,1,0,0H0a0,0,0,0,1,0,0V52A52,52,0,0,1,52,0Z" transform="translate(828 6700)" fill="url(#linear-gradient-2)"/>
    <path id="Rectangle_20" data-name="Rectangle 20" d="M52,0h0a52,52,0,0,1,52,52V363a0,0,0,0,1,0,0H0a0,0,0,0,1,0,0V52A52,52,0,0,1,52,0Z" transform="translate(908 6547)" fill="url(#linear-gradient-2)"/>
    <path id="Rectangle_21" data-name="Rectangle 21" d="M65,0h0a65,65,0,0,1,65,65V503a0,0,0,0,1,0,0H0a0,0,0,0,1,0,0V65A65,65,0,0,1,65,0Z" transform="translate(993 6407)" fill="url(#linear-gradient-2)"/>
  </g>
</svg>
